<svg xmlns="http://www.w3.org/2000/svg" viewBox="0 0 500 500"><g id="freepik--Floor--inject-10"><path id="freepik--floor--inject-10" d="M77.66,249.79c-95.18,55-95.17,144,0,199s249.49,55,344.67,0,95.17-144,0-199S172.84,194.84,77.66,249.79Z" style="fill:#f5f5f5"></path></g><g id="freepik--Window--inject-10"><g id="freepik--window--inject-10"><g id="freepik--window--inject-10"><g id="freepik--Frame--inject-10"><polygon points="366.83 87.09 364.25 88.53 364.25 201.64 366.83 200.2 366.83 87.09" style="fill:#fafafa"></polygon><polygon points="366.83 200.2 366.84 90.02 448.65 137.3 448.63 247.47 366.83 200.2" style="fill:#fff"></polygon><path d="M453.44,258.69V134.54l-94-54.29V204.4Zm-89.19-57.05V88.53l84.4,48.77V250.41Z" style="fill:#f0f0f0"></path><polygon points="364.25 201.64 366.83 200.2 448.63 247.47 448.65 250.41 364.25 201.64" style="fill:#e0e0e0"></polygon><polygon points="411.36 115.73 408.79 114.24 408.79 227.35 411.36 225.91 411.36 115.73" style="fill:#fafafa"></polygon><polygon points="453.44 258.69 456 257.2 456 133.05 453.44 134.54 453.44 258.69" style="fill:#e0e0e0"></polygon><polygon points="456 133.05 453.44 134.54 359.47 80.25 362.04 78.75 456 133.05" style="fill:#fafafa"></polygon><polygon points="448.65 188.86 448.65 191.83 364.25 143.06 366.81 141.56 448.65 188.86" style="fill:#e0e0e0"></polygon></g><polygon points="448.64 197.35 448.65 191.83 364.25 143.06 364.25 148.58 448.64 197.35" style="fill:#f0f0f0"></polygon><polygon points="408.79 232.88 404.01 230.12 404.01 105.96 408.79 108.72 408.79 232.88" style="fill:#f0f0f0"></polygon><polygon points="408.79 168.78 411.36 167.29 411.36 115.73 408.79 114.24 408.79 168.78" style="fill:#fafafa"></polygon></g></g></g><g id="freepik--Shadows--inject-10"><ellipse id="freepik--Shadow--inject-10" cx="102.89" cy="383.33" rx="76.46" ry="44.14" style="fill:#e0e0e0"></ellipse><path id="freepik--shadow--inject-10" d="M268.72,382.43l-34.48,19.7a.8.8,0,0,1-.4.11.76.76,0,0,1-.4-.09l-42.79-24.71c-.23-.13-.24-.34,0-.48l34.51-19.7Z" style="fill:#e0e0e0"></path><path id="freepik--shadow--inject-10" d="M412.06,317.8l-60.58-35a8.11,8.11,0,0,0-7.37,0l-131,75.62c-2,1.17-2,3.08,0,4.25l60.58,35a8.18,8.18,0,0,0,7.37,0l131-75.62C414.1,320.88,414.1,319,412.06,317.8Z" style="fill:#e0e0e0"></path><path id="freepik--shadow--inject-10" d="M368.87,408.36l-55.76-32.08a.89.89,0,0,1,0-1.68l56.45-32.78a3.24,3.24,0,0,1,2.91,0l55.76,32.09a.89.89,0,0,1,0,1.68l-56.45,32.77A3.18,3.18,0,0,1,368.87,408.36Z" style="fill:#e0e0e0"></path><path id="freepik--shadow--inject-10" d="M464.68,340.66c6.93,4,6.93,10.61,0,14.66s-18.17,4.05-25.11,0-6.93-10.61,0-14.66S457.75,336.61,464.68,340.66Z" style="fill:#e0e0e0"></path></g><g id="freepik--character-1--inject-10"><g id="freepik--character-2--inject-10"><g id="freepik--Bottom--inject-10"><polygon points="120.45 373.52 126.27 371.2 124.48 367.09 120.6 370.3 120.45 373.52"></polygon><path d="M114.38,362.13s-.09,4.24-.2,5.45,5,5.26,6.27,5.94l.15-3.22a22,22,0,0,1,2.81,4.76c.93,1.78,2.07,5.12,4.76,7.5,4,3.52,10.38,5.52,17,6.08s10.44-.84,12.39-2.15,2.62-2.93,2.23-4.6S114.38,362.13,114.38,362.13Z" style="fill:#263238"></path><path d="M132.67,349.83l.19-2.23c1.22,0,1.21,3.27,2.84,6.2a58.54,58.54,0,0,0,8.73,12.11c6.41,6.31,12.2,10.36,15.06,13.2,3.82,3.8-3.47,9.18-14.22,8.06-5.33-.56-14.7-3.66-17.22-6.89s-3.93-8.14-6-10.5-6.51-4.85-7.71-7.65c-.66-1.53-.1-5,.48-8,.53-2.71.82-6.89,2.37-6.48l0,1.41c.59,1.23,2,3.28,6.26,4.2C125.66,353.74,132.07,354.25,132.67,349.83Z" style="fill:#455a64"></path><path d="M127,353.56c2.07-.07,4.32-.63,5.27-2.4a.13.13,0,0,1,0-.06,5,5,0,0,0,1.18,4.37c1.82,2.31,13.24,18.49,13.24,18.49S136,360.55,133.94,358c-3-3.74-4-4.21-7-4.45Z" style="opacity:0.15"></path><path d="M129.47,357.83a.66.66,0,0,1-1.3-.21.66.66,0,0,1,.76-.53A.63.63,0,0,1,129.47,357.83Z" style="opacity:0.15"></path><path d="M132.49,361.43a.67.67,0,0,1-.76.54.65.65,0,1,1,.21-1.28A.66.66,0,0,1,132.49,361.43Z" style="opacity:0.15"></path><path d="M135.5,365a.66.66,0,1,1-.55-.74A.65.65,0,0,1,135.5,365Z" style="opacity:0.15"></path><path d="M138.52,368.64a.66.66,0,0,1-1.31-.21.67.67,0,0,1,.76-.54A.66.66,0,0,1,138.52,368.64Z" style="opacity:0.15"></path><path d="M141.53,372.24a.66.66,0,0,1-.76.53.63.63,0,0,1-.54-.74.66.66,0,0,1,1.3.21Z" style="opacity:0.15"></path><path d="M128.79,358a.3.3,0,0,1-.17-.08.27.27,0,0,1,0-.37,10.94,10.94,0,0,1,7.58-2.52h0a.26.26,0,1,1-.06.51c-3.91-.41-7.15,2.37-7.18,2.4A.27.27,0,0,1,128.79,358Z" style="fill:#263238"></path><path d="M131.8,361.57a.21.21,0,0,1-.16-.08.26.26,0,0,1,0-.37,11,11,0,0,1,7.59-2.52h0a.26.26,0,1,1-.06.51c-3.89-.41-7.14,2.37-7.18,2.4A.25.25,0,0,1,131.8,361.57Z" style="fill:#263238"></path><path d="M134.82,365.19a.32.32,0,0,1-.17-.09.25.25,0,0,1,0-.36,10.88,10.88,0,0,1,7.59-2.53h0a.27.27,0,0,1,.23.29.28.28,0,0,1-.3.23c-3.89-.42-7.14,2.37-7.17,2.39A.25.25,0,0,1,134.82,365.19Z" style="fill:#263238"></path><path d="M137.83,368.79a.3.3,0,0,1-.16-.08.26.26,0,0,1,0-.37,10.92,10.92,0,0,1,7.58-2.53h0a.27.27,0,0,1,.23.29.27.27,0,0,1-.29.23c-3.9-.41-7.15,2.37-7.18,2.4A.27.27,0,0,1,137.83,368.79Z" style="fill:#263238"></path><path d="M140.84,372.39a.21.21,0,0,1-.16-.08.26.26,0,0,1,0-.37,11,11,0,0,1,7.59-2.52h0a.26.26,0,1,1-.06.51c-3.89-.41-7.14,2.37-7.18,2.4A.26.26,0,0,1,140.84,372.39Z" style="fill:#263238"></path><path d="M71.36,390.4c-.84,5.07-2,8.37-4.16,11.18s-6.11,3.19-9.06,2.64a12.51,12.51,0,0,1-9.93-9.3c-1-3.47-.42-7.47.87-12.12Z" style="fill:#263238"></path><path d="M59.22,351.77c-1.46,0-2.6,6.78-4.16,13.55-1.66,7.26-4.38,11.15-5.65,16-1.75,6.76-1.58,9.9.44,14.31s12.27,9.65,17.18,4.12c4-4.52,4.71-9.89,5.11-16.8a171.11,171.11,0,0,1,1.5-17.53c.82-5.13,1.71-10.09.51-10.79-.18.75-.38,1.7-.56,2.43-.13.57-.57,3.34-1.39,3.29a10.74,10.74,0,0,1,.19-1.95,2.22,2.22,0,0,0-.23-1.7,2.75,2.75,0,0,0-1.53-.86,41.55,41.55,0,0,0-4.26-1.09c-.71-.13-1.44-.24-2.16-.3a26,26,0,0,0-3.83-.23,1.32,1.32,0,0,0-.86.63,2,2,0,0,0-.15.77,5.6,5.6,0,0,1-.33,1.4c-.08.2-.25.43-.45.36s-.21-.27-.19-.44c.08-.83.25-1.42.39-2.39.06-.44.2-1,.26-1.49S59.15,352.21,59.22,351.77Z" style="fill:#455a64"></path><path d="M54.56,383.58a.51.51,0,0,0,1,.2.49.49,0,0,0-.39-.59A.51.51,0,0,0,54.56,383.58Z" style="opacity:0.15"></path><path d="M55.55,378.87a.51.51,0,0,0,.39.6.52.52,0,0,0,.61-.4.51.51,0,0,0-.4-.59A.51.51,0,0,0,55.55,378.87Z" style="opacity:0.15"></path><path d="M56.47,374.44a.51.51,0,0,0,1,.2.49.49,0,0,0-.39-.59A.51.51,0,0,0,56.47,374.44Z" style="opacity:0.15"></path><path d="M57.39,370.06a.5.5,0,0,0,.4.59.51.51,0,0,0,.6-.39.51.51,0,0,0-1-.2Z" style="opacity:0.15"></path><path d="M68.81,371.9a.49.49,0,0,0,.4.59.51.51,0,0,0,.6-.39.5.5,0,0,0-.4-.59A.52.52,0,0,0,68.81,371.9Z" style="opacity:0.15"></path><path d="M67.89,376.31a.5.5,0,0,0,.4.59.52.52,0,0,0,.6-.39.49.49,0,0,0-.4-.59A.51.51,0,0,0,67.89,376.31Z" style="opacity:0.15"></path><path d="M67,380.75a.51.51,0,0,0,1,.2.49.49,0,0,0-.4-.59A.51.51,0,0,0,67,380.75Z" style="opacity:0.15"></path><path d="M66,385.45a.5.5,0,0,0,.4.6.52.52,0,0,0,.6-.4.5.5,0,0,0-.4-.59A.51.51,0,0,0,66,385.45Z" style="opacity:0.15"></path><polygon points="61.47 387.27 68.83 354.5 66.96 354.28 61.47 387.27" style="opacity:0.15"></polygon><path d="M55,383.93h.08c3.44-.4,9.13.51,11.26,1.81a.27.27,0,0,0,.36-.08.26.26,0,0,0-.09-.35c-2.26-1.38-8-2.3-11.59-1.88a.24.24,0,0,0-.22.28A.26.26,0,0,0,55,383.93Z" style="fill:#263238"></path><path d="M56,379.22a.2.2,0,0,0,.13,0c2.69-.93,8.77.34,11.2,1.82a.26.26,0,0,0,.36-.08.25.25,0,0,0-.08-.35c-2.54-1.55-8.82-2.85-11.65-1.87a.26.26,0,0,0-.16.33A.24.24,0,0,0,56,379.22Z" style="fill:#263238"></path><path d="M56.93,374.79a.3.3,0,0,0,.13,0c2.69-.93,8.76.34,11.2,1.83a.27.27,0,0,0,.36-.09.26.26,0,0,0-.09-.35c-2.53-1.55-8.81-2.85-11.64-1.86a.24.24,0,0,0-.16.32A.27.27,0,0,0,56.93,374.79Z" style="fill:#263238"></path><path d="M57.84,370.41a.29.29,0,0,0,.13,0c2.69-.94,8.77.34,11.2,1.82a.26.26,0,0,0,.36-.08.25.25,0,0,0-.08-.35c-2.54-1.55-8.82-2.86-11.65-1.87a.26.26,0,0,0-.16.32A.28.28,0,0,0,57.84,370.41Z" style="fill:#263238"></path><path d="M77,184c-7.26,40.73-12,98.18-12,98.18-.47,3.17-3,17.34-5.37,33-2.54,16.51-5.52,47.52-5.52,47.52s11.5,6.88,21.26,4.26c0,0,14.66-48.62,20.61-67.91,5.63-18.27,13.15-56.15,13.15-56.15l3.13,35s-1.29,11.93-1.37,20.33c-.1,9.76,3.77,56.92,3.77,56.92s12.48,8.13,22.84,1.19c0,0,7-61.51,7.74-73.22,1.52-23.57,1.66-66.94,2.38-96.67Z" style="fill:#263238"></path><path d="M91.84,233.25q-2.15,15-4.59,30-1.2,7.49-2.48,15l-1.27,7.49-.65,3.73c-.21,1.25-.53,2.48-.79,3.71C79.84,303,76.29,321,73.92,330.84s-4.85,19.66-7.47,29.44q2.79-14.92,6-29.75c2.12-9.89,5.56-27.87,7.83-37.72.26-1.24.6-2.46.81-3.71l.67-3.73,1.37-7.46q1.35-7.46,2.79-14.91Q88.71,248.11,91.84,233.25Z"></path><path d="M137.17,232.86c.58,9.45.65,18.92.57,28.38s-.21,18.95-1.07,28.36-1.82,25.24-2.68,34.66-1.79,18.83-2.87,28.23q.52-14.17,1.41-28.33c.56-9.43,1.57-25.25,2.27-34.67l.55-7.07.14-1.76.07-1.76.15-3.54.57-14.16.51-14.16C137,242.31,137.08,237.59,137.17,232.86Z"></path><path d="M109.07,242.86l5.4-22.78s11.71-1,17.95-6c0,0-4.21,6.73-15.32,8.86l-5.23,20.1.33,34.77Z"></path></g><g id="freepik--Top--inject-10"><path id="freepik--Arm--inject-10" d="M147.68,112.92c10.21,4.18,11.74,12.62,11.56,28.84s0,27.4,0,27.4l19.67,9.38-6.41,15.65-29-5.54Z" style="fill:#37474f"></path><path d="M93.17,111.15s-7.26,3.64-10.36,22.14c-2.11,12.62-3,18-4.93,35s-2.32,28.36-2.32,28.36c11.82,14.65,66.56,15.16,72.95,2.05a208.76,208.76,0,0,1,1.23-31c1.32-12,2.9-19.79,3.69-27.68,1.37-13.57-2.28-23.91-6.11-26.88l-26.73-8.88-16.16,4.11Z" style="fill:#f5f5f5"></path><g id="freepik--Head--inject-10"><path d="M149.24,68.88c0-4.8-3.41-16.76-21.59-17.17-16.83-.38-24.2,12.82-21.77,25.85,0,0,7.29,13.63,19.54,7.23S146.74,60.51,149.24,68.88Z" style="fill:#37474f"></path><path d="M149.52,75.53c-.32,3-1.37,4.1-1.12,6.58a36.35,36.35,0,0,1-1.63,15.51c-1.93,5.35-3.78,7.6-9.12,8.27a28.75,28.75,0,0,1-6-.2l-1,5c1.4,10.06-2.12,14.7-2.12,14.7-8-12.83-16.52-10.79-18.73-17.9l.91-8.82c.14-2.15.48-5.55.48-5.55a6,6,0,0,1-4.77-1,9.2,9.2,0,0,1-3.5-6.64c-.19-2.12-.21-6.33,2.93-8a6.64,6.64,0,0,1,7.37,1.29A4.57,4.57,0,0,1,114,80.1c.26.69.54,1.62,1.29,1.65,1.63.07,1.45-4.31,2.15-5.32,1-1.44,3.24-1.74,3.93-3.35a4.81,4.81,0,0,0,0-2.88,10.24,10.24,0,0,1-.25-3.61A6.54,6.54,0,0,1,126,61.25c2.53-.57,5.11.44,7.46,1.51,1.87.86,7.19,3.79,8.86,1.46.49-.69.37-1.65.75-2.4,1-1.94,3.4,1.16,4.15,2.08l0,0a13.66,13.66,0,0,1,2,4.94A29,29,0,0,1,149.52,75.53Z" style="fill:#c8856a"></path><path d="M132.63,80.26a1.76,1.76,0,1,1-1.81-1.79A1.8,1.8,0,0,1,132.63,80.26Z" style="fill:#263238"></path><path d="M144.71,79.34a1.85,1.85,0,1,1-1.86,1.74,1.82,1.82,0,0,1,1.86-1.74" style="fill:#263238"></path><path d="M147.87,77.84,143,75.3a2.6,2.6,0,0,1,3.59-1.24A2.91,2.91,0,0,1,147.87,77.84Z" style="fill:#263238"></path><path d="M127.44,75.8l5.19-1.68a2.61,2.61,0,0,0-3.33-1.84A2.91,2.91,0,0,0,127.44,75.8Z" style="fill:#263238"></path><path d="M130.05,91.34l6.76,2.6A3.8,3.8,0,0,1,132,96.1,3.57,3.57,0,0,1,130.05,91.34Z" style="fill:#af6152"></path><path d="M132,96.1a3.47,3.47,0,0,1-2.19-2.77,4.26,4.26,0,0,1,4.48,2.85A3.6,3.6,0,0,1,132,96.1Z" style="fill:#ffa8a7"></path><path d="M111.23,93.17a4.12,4.12,0,0,0,2.16-1.9,4.46,4.46,0,0,1-2.31,3.5Z" style="fill:#af6152"></path><polygon points="137.15 78.71 144.28 89.33 137.22 90.86 137.15 78.71" style="fill:#af6152"></polygon><path d="M131.68,105.69c-6.16-1.24-10.48-2.63-14.08-6.74a19.54,19.54,0,0,1-3.42-6.67s0,5.41,2.57,8.27c2.2,2.48,4.81,5.75,14.5,7.38Z" style="fill:#af6152"></path></g><g id="freepik--Chest--inject-10"><path d="M128.57,125.44a21.51,21.51,0,0,1-3.08-3.26c-1.33-1.81-2-2.64-2.62-2.14-.93.71-3.83,4.93-4.64,6.37s-.7,1.44-2.6-.15a37.15,37.15,0,0,1-8.32-10.05,27.6,27.6,0,0,1-2.88-7.85s2.68-3,3.5-4.18c1.58-2.26,1.28-3.77,2.61-3.41l-.2,1.93c.27,1.57,3.16,4.6,5.79,7.45s7.07,5.76,8.06,7C124.92,118,128.57,125.44,128.57,125.44Z" style="fill:#e6e6e6"></path><path d="M105.46,107.18a90.85,90.85,0,0,1,7.43,23c2.63,13.56.5,23.42-.65,49.43-.8,17.93-1.83,33-1.83,33-9.44.54-29.59-2.32-37.14-9.28,0,0,.26-10.47,2.86-38.22,4.4-48.71,12.6-54.25,12.6-54.25Z" style="fill:#455a64"></path><path d="M100.66,137.36l8.43,5.95.4.28c-1.17,2.52-2.39,5-3.6,7.51,1.57,9,3,18.08,4.09,27.18.31,3.06.66,6.13.68,9.21-.25-3.07-.72-6.1-1.2-9.14-.91-5.79-3.67-21.27-4.73-27.23l0-.18c1.1-2.33,2.2-4.66,3.32-7l-8.2-5.91-.24-.17,5.84-29.71Z" style="fill:#37474f"></path><path d="M137.05,124.82c-.42.82-2.39-6.16-3.73-6.17-.64,0-2.19,3.17-3,4.34s-1.25,1.71-1.77,2.45c1-1.93,1.8-7.1,2.11-8.43a24.11,24.11,0,0,0,0-6.27l1-5,1.18.09a21.67,21.67,0,0,1,1.63,2.5c1.06,2.27,3,6.41,3.18,9A22.53,22.53,0,0,1,137.05,124.82Z" style="fill:#e6e6e6"></path><path d="M134,107.35s7.4,22,6.84,37.82-2.41,66-2.41,66,6.46.5,11.38-6c0,0-1.35-23.6,2.22-44.21,3.82-22.06,4.33-40.43-4.3-48.09Z" style="fill:#455a64"></path><path d="M142.51,136.5l-.18-.33.23-.29,5.47-6.69c-3.41-5.81-8.54-14.67-11.71-20.37,3.66,5.57,9.19,14.44,12.76,20.15l.19.3-.23.29-5.37,6.72,4,7.06c.12.21.12.16.06.4-2.61,12.87-4,27.15-7,39.9,2.06-12.87,3.28-27.08,5.77-39.91Z" style="fill:#37474f"></path></g><g id="freepik--Hands--inject-10"><path d="M175.24,195.88c-10.78-1.56-15.13-8.22-18.26-11.21,0,0,0-10.23,8.82-13,3.28,2,4.06,3.15,7.57,1.65a24,24,0,0,1,3.44-1.33c2.87-.75,4.95-.9,7.43-1.82a1.61,1.61,0,0,1,1.75.07,1.23,1.23,0,0,1,.42,1.3,2.82,2.82,0,0,1-.5,1,13.11,13.11,0,0,1-3.63,2.92.6.6,0,0,0-.21.21c-.1.23.13.46.35.59,1.68,1,3.81,1.18,5.42,2.32a1.87,1.87,0,0,1,.5.47c.83,1.18.07,3.23-.44,4.4a11.26,11.26,0,0,1-3.41,4.38C179.69,191.65,175.24,195.88,175.24,195.88Z" style="fill:#af6152"></path><g id="freepik--magnifying-glass--inject-10"><path d="M108.21,257.4l.15-.13,68.58-67.44h0c1.32-1.18,1.85-3.22,1.28-5.85-1.14-5.24-6.26-10.83-11.44-12.47-2.59-.82-4.71-.5-6,.68h0l-75,60.45s-.09.1-.14.14a2.65,2.65,0,0,0-.26.21,16.45,16.45,0,0,0-1.21,23.47A17,17,0,0,0,108,257.62Z" style="fill:#673AB7"></path><path d="M166.78,171.51c-5.18-1.65-8.46,1.28-7.31,6.52s6.26,10.83,11.44,12.48,8.45-1.28,7.31-6.53S172,173.15,166.78,171.51Z" style="opacity:0.25"></path><path d="M96.11,237.55l65.43-54.71a15.73,15.73,0,0,1-2.08-4.8c-.56-2.62-.05-4.64,1.26-5.83L85.78,232.64s-.09.1-.14.14a2.65,2.65,0,0,0-.26.21,16.45,16.45,0,0,0-1.21,23.47C81.66,251.75,87.55,244.78,96.11,237.55Z" style="opacity:0.1"></path><path d="M190.73,168.3a11.31,11.31,0,0,0-6.92-7.54,3.71,3.71,0,0,0-3.65.41h0L164,175.67h0a3.57,3.57,0,0,0-.78,3.54,11.28,11.28,0,0,0,6.92,7.54,3.68,3.68,0,0,0,3.65-.41L190,171.84h0A3.56,3.56,0,0,0,190.73,168.3Z" style="fill:#e0e0e0"></path><path d="M183.26,177.83l6.69-6a3.56,3.56,0,0,0,.78-3.54,11.31,11.31,0,0,0-6.92-7.54,3.71,3.71,0,0,0-3.65.41h0l-5.88,5.26A64.67,64.67,0,0,0,183.26,177.83Z" style="opacity:0.25"></path><path d="M267.92,40.4C229.16,46.87,186.57,82,172.8,118.75c-4,10.7-5.14,20.36-3.77,28.53a31.65,31.65,0,0,0,6.68,15.16l10.69,13.09c8.19,9.95,22.94,14.48,42.33,11.24,38.76-6.47,81.35-41.55,95.13-78.35,6.87-18.41,5.25-33.75-2.92-43.68L310.22,51.61C302,41.69,287.28,37.17,267.92,40.4ZM216.42,164c-9.2,1.53-17.07,1.1-23.22-1.13a25.78,25.78,0,0,1-3.82-1.72,27.2,27.2,0,0,1-.64-2.83c-1.11-6.66,0-14.77,3.29-23.48,6.06-16.22,18.58-32.7,35.24-46.43s35.24-22.85,52.32-25.7c11.23-1.88,20.47-.82,27,2.84a24.33,24.33,0,0,1,.71,3.32c1,6.56-.17,14.5-3.35,23-6.08,16.21-18.59,32.7-35.25,46.43S233.5,161.17,216.42,164Z" style="fill:#455a64"></path><path d="M300.16,145.31l-17-20.71a139.92,139.92,0,0,1-14.45,13.71c-1,.85-2.06,1.68-3.1,2.49l16.92,20.65A150.74,150.74,0,0,0,300.16,145.31Zm-3.49-38.57a109.86,109.86,0,0,1-6.74,9.81L307,137.37c2.49-3.13,4.81-6.33,6.93-9.59Z" style="fill:#fff;opacity:0.1"></path><path d="M175.78,162.51l10.63,13c8.18,9.94,22.93,14.48,42.32,11.24.74-.12,1.48-.28,2.23-.42l-10.69-13.08-2.24.4C198.71,176.89,184,172.39,175.78,162.51Z" style="fill:#37474f"></path><path d="M269.53,50.05c-17.07,2.86-35.67,12-52.32,25.71S188,106,182,122.18c-3.26,8.71-4.39,16.83-3.28,23.49.07.42.15.84.25,1.24a20.67,20.67,0,0,0,10.45,14.26,27.2,27.2,0,0,1-.64-2.83c-1.11-6.66,0-14.77,3.29-23.48,6.06-16.22,18.58-32.7,35.24-46.43s35.24-22.85,52.32-25.7c11.23-1.88,20.47-.82,27,2.84a20.68,20.68,0,0,0-11.17-13.26C289,49.13,280.13,48.28,269.53,50.05Z" style="fill:#263238"></path><path d="M267.92,40.4c-38.76,6.47-81.35,41.55-95.13,78.35s6.48,61.39,45.24,54.92,81.35-41.55,95.13-78.35S306.68,33.93,267.92,40.4ZM217.21,75.76C233.87,62,252.45,52.9,269.53,50.05c21.12-3.52,35.23,3.33,37.74,18.35a3.7,3.7,0,0,1,.07.48c1,6.57-.17,14.51-3.35,23-6.07,16.21-18.59,32.7-35.25,46.42S233.5,161.16,216.42,164c-9.2,1.53-17.07,1.1-23.22-1.13-8-2.87-13.1-8.75-14.52-17.22-1.11-6.66,0-14.78,3.28-23.49C188,106,200.55,89.48,217.21,75.76Z" style="fill:#37474f"></path><path d="M269.9,149.86A142.43,142.43,0,0,1,237.43,168a99.28,99.28,0,0,1-17.87,5.1,68.64,68.64,0,0,1-18.48,1,40.89,40.89,0,0,1-17.56-5.35,29.6,29.6,0,0,1-12-13.7,38.56,38.56,0,0,1-2.75-18.17,66.3,66.3,0,0,1,4-18.14,66.8,66.8,0,0,0-4.35,18.12,39.07,39.07,0,0,0,2.66,18.39,30.15,30.15,0,0,0,12.1,14A41.57,41.57,0,0,0,201,174.84a69.07,69.07,0,0,0,18.66-1.17,100,100,0,0,0,17.94-5.25,130.12,130.12,0,0,0,16.81-8.13A153,153,0,0,0,269.9,149.86Z" style="fill:#455a64"></path><path d="M274.44,56.26c-17.07,2.85-35.67,12-52.32,25.7s-29.18,30.22-35.25,46.43c-3.26,8.7-4.39,16.82-3.28,23.49a23.37,23.37,0,0,0,2.2,6.81,23.41,23.41,0,0,0,7.41,4.2c6.15,2.23,14,2.66,23.22,1.13,17.08-2.85,35.66-12,52.32-25.7S297.91,108.1,304,91.89c3.18-8.5,4.34-16.44,3.35-23a3.85,3.85,0,0,0-.07-.49,23.43,23.43,0,0,0-2.2-6.82C298.49,56,287.89,54,274.44,56.26Z" style="fill:#fff;opacity:0.30000000000000004"></path><path d="M177.83,145.91a23.35,23.35,0,0,0,3.13,8.64,20.84,20.84,0,0,0,6.52,6.53,27.88,27.88,0,0,0,8.6,3.48,41.64,41.64,0,0,0,9.24,1.06,71.15,71.15,0,0,0,18.36-2.54,101.41,101.41,0,0,0,17.41-6.39,119.86,119.86,0,0,0,16.14-9.15A142.38,142.38,0,0,0,272,136.26a127.26,127.26,0,0,0,24.24-28,89,89,0,0,0,8.16-16.73,52.17,52.17,0,0,0,3.37-18.37,28.71,28.71,0,0,0-1.67-9.33,21.29,21.29,0,0,0-5.22-8,21,21,0,0,0-3.8-2.91,24.77,24.77,0,0,0-4.27-2.08,34.37,34.37,0,0,0-9.19-2A61.29,61.29,0,0,0,265,50.36a95,95,0,0,0-17.58,5.85A118.51,118.51,0,0,0,231.2,65a136.34,136.34,0,0,0-14.83,11,133.45,133.45,0,0,1,31.47-18.9,95,95,0,0,1,17.46-5.52,60.12,60.12,0,0,1,18.12-1.22,32.9,32.9,0,0,1,8.75,2,22.24,22.24,0,0,1,7.49,4.68,19.53,19.53,0,0,1,4.76,7.36,26.7,26.7,0,0,1,1.52,8.75,50.76,50.76,0,0,1-3.35,17.71,87.88,87.88,0,0,1-8.06,16.33,125.72,125.72,0,0,1-23.75,27.71,137.68,137.68,0,0,1-30.34,20.4,99.52,99.52,0,0,1-17.08,6.56,70.78,70.78,0,0,1-18,2.77,40.08,40.08,0,0,1-9.08-.82,27,27,0,0,1-8.49-3.2,20.58,20.58,0,0,1-6.55-6.25A23.43,23.43,0,0,1,177.83,145.91Z" style="fill:#455a64"></path></g><g id="freepik--Hand--inject-10"><path d="M190.63,184.28c2.41-1.26,2.41-1.58,2.15-3a7,7,0,0,0-3.75-5.13c-1.76-.83-3.5-1.75-4.62-1.74s-1.32,2.28.69,3.93c3.16,2.59,2.65,3.55,2.65,3.55a50.35,50.35,0,0,0-4.19-3.13c-1.29-.74-4-1.32-5.63-1.84s-2.89,1.26-.68,3.22l-3-.95c-2.08-.67-3.25,0-2.34,2a3.16,3.16,0,0,0,1.42,1.54s-2.06-1-2.44-.38c-1.11,1.9-.1,3.05,3.45,6.34,1,.93,1.74,3.14,2.08,3.92l-1.2,3.27,4.51-.22a3.7,3.7,0,0,0,3.21-3s2.24,1.18,3.08-.15a8,8,0,0,0,1-3.27,2.73,2.73,0,0,0,2.41-1.69,4.5,4.5,0,0,0,.42-2.87Z" style="fill:#c8856a"></path><path d="M177.25,180.16a13.59,13.59,0,0,1,2.63,1,9,9,0,0,1,2,2,33.64,33.64,0,0,1,3.19,4.54,33.6,33.6,0,0,1-3.82-4,14.35,14.35,0,0,0-1.76-2C178.84,181.17,178,180.72,177.25,180.16Z" style="fill:#af6152"></path><path d="M173.35,182.73a6.22,6.22,0,0,1,2.74,1.28,16.06,16.06,0,0,1,2.17,2.11A28.71,28.71,0,0,1,181.7,191a59.24,59.24,0,0,1-4.06-4.35A15.6,15.6,0,0,0,173.35,182.73Z" style="fill:#af6152"></path></g><g id="freepik--arm--inject-10"><path d="M120.69,226.55a6.4,6.4,0,0,1,.77,2.82,1.85,1.85,0,0,1-.95,1.52c-1.1.57-2.23-1.26-2.77-2a3.79,3.79,0,0,1,.5,3.08c-.55,2.11-2.89.47-3.64-.59a2.74,2.74,0,0,1-2,.58c-1.49-.2-1.93-1.53-2.92-2.42-.66-.58-1.29-1.16-1.9-1.76a20.27,20.27,0,0,1-2.65-3.15,31.35,31.35,0,0,1-2.57-5.53c-.33-.9-.61-1.74-.79-2.4-.9-3.14-1.86-7.09-4.75-9-3.86-2.59-26.33-16.4-34.08-22.94-6.87-5.79-8.84-7.11-6.17-16.45,1.69-5.93,6.74-19.92,12.61-34.87,5.77-14.72,9.2-18.9,19.38-22C100.55,116.16,92.1,145,92.1,145L81.49,170s17,17.51,26.11,24.94c1.72,1.39,4.41,2.38,7,3.92a50.28,50.28,0,0,1,7,4.89l-4.8,3.88a.65.65,0,0,0-.63.5h0a2.76,2.76,0,0,0-.1,1,34.23,34.23,0,0,0,1,6.19c.35,1.37.69,2.56,1.08,3.77.27.87.57,1.75.91,2.72S120.29,225.63,120.69,226.55Z" style="fill:#c8856a"></path><path d="M101.26,188.65l5.57,5.09a16.79,16.79,0,0,1-4.42,8.83A19.88,19.88,0,0,1,95,207.36l-6.53-4.66Z" style="fill:#f5f5f5"></path><path d="M117.78,228.81a72.29,72.29,0,0,1-3.42-8.07c-.35-1-.69-2-1-3.05a13.6,13.6,0,0,0-1-2.95.07.07,0,0,0-.13,0,4.42,4.42,0,0,0,.24,1.19c.15.55.31,1.11.47,1.66.33,1.18.67,2.35,1.08,3.5.74,2,2.21,6.12,3.69,7.78C117.77,228.94,117.79,228.84,117.78,228.81Z" style="fill:#af6152"></path><path d="M114.5,231.17a72.29,72.29,0,0,1-3.42-8.07c-.35-1-.69-2-1-3a28,28,0,0,0-1.29-4.26c0-.07-.12,0-.12,0a19.57,19.57,0,0,0,.55,2.5c.15.55.31,1.11.47,1.66.33,1.18.67,2.35,1.09,3.5.74,2.05,2.2,6.12,3.68,7.78C114.49,231.3,114.52,231.2,114.5,231.17Z" style="fill:#af6152"></path><path d="M110.63,230.69a74.14,74.14,0,0,1-3.41-8.07c-.36-1-.7-2-1-3.05a29.13,29.13,0,0,0-1.29-4.26.07.07,0,0,0-.13,0,19.42,19.42,0,0,0,.55,2.49c.15.56.31,1.11.47,1.67.34,1.17.67,2.35,1.09,3.5.74,2.05,2.21,6.12,3.68,7.77C110.62,230.82,110.65,230.72,110.63,230.69Z" style="fill:#af6152"></path><path d="M88.73,110.8c-10.58,2.48-13.64,6.6-18.59,18.73S58.6,160.14,56.49,167.32,54,178.63,58.25,182.51s32.18,22.33,32.18,22.33a19,19,0,0,0,8.34-4.64,18.28,18.28,0,0,0,5.34-9.79l-21.37-21s7.42-18.48,9.78-24S100.08,116.43,88.73,110.8Z" style="fill:#37474f"></path></g></g></g></g><g id="freepik--Light--inject-10"><path d="M467.63,325.29h0l-139.5-237a63.56,63.56,0,0,1-4.28,20.14c-13.78,36.8-56.37,71.88-95.14,78.35-19.38,3.24-34.13-1.3-42.31-11.24L182,170.1l-4.82,180.51h0c-.52,22.38,14,44.85,43.57,61.93,58.13,33.56,152.38,33.56,210.51,0C472.13,388.93,484.26,355,467.63,325.29Z" style="fill:#673AB7;opacity:0.1"></path><ellipse id="freepik--shadow--inject-10" cx="325.99" cy="351.77" rx="148.85" ry="85.94" style="fill:#673AB7;opacity:0.2"></ellipse></g></g><g id="freepik--speech-bubble-2--inject-10"><g id="freepik--speech-bubble--inject-10"><g id="freepik--Bubble--inject-10"><path d="M386.06,145.11c3.71-2.11,8.83-1.79,14.47,1.47,11.36,6.56,20.57,22.5,20.57,35.62,0,6.55-2.3,11.15-6,13.3l-7,4c-3.72,2.14-8.85,1.83-14.52-1.44C382.17,191.54,373,175.59,373,162.48c0-6.54,2.29-11.13,6-13.29C380.51,148.29,384.49,146,386.06,145.11Z" style="fill:#673AB7"></path><path d="M420.34,175.38a33.14,33.14,0,0,1,.76,6.82c0,6.55-2.3,11.15-6,13.3l-7,4c-3.72,2.14-8.85,1.83-14.52-1.44A33,33,0,0,1,388,194Z" style="opacity:0.15"></path><path d="M379,182.73c-3.72-6.44-6-13.7-6-20.25,0-13.12,9.21-18.43,20.57-11.87s20.56,22.5,20.56,35.62-9.2,18.43-20.56,11.87a35.55,35.55,0,0,1-8-6.52l-8.39,1.54a1.39,1.39,0,0,1-1.53-1.88Z" style="fill:#673AB7"></path><path d="M379,182.73c-3.72-6.44-6-13.7-6-20.25,0-13.12,9.21-18.43,20.57-11.87s20.56,22.5,20.56,35.62-9.2,18.43-20.56,11.87a35.55,35.55,0,0,1-8-6.52l-8.39,1.54a1.39,1.39,0,0,1-1.53-1.88Z" style="fill:#fff;opacity:0.35000000000000003"></path></g><g id="freepik--Alert--inject-10"><path d="M391.88,180.62l2.7,1.56a.58.58,0,0,0,.94-.51l1.1-20.19a1.84,1.84,0,0,0-.83-1.53L390.68,157c-.49-.28-.86-.05-.83.51l1.1,21.58A2.06,2.06,0,0,0,391.88,180.62Z" style="fill:#fafafa"></path><path d="M393.23,191.48c1.72,1,2.75-.29,2.75-2.08a6.53,6.53,0,0,0-2.75-5.26c-1.72-1-2.75.3-2.75,2.08A6.53,6.53,0,0,0,393.23,191.48Z" style="fill:#fafafa"></path></g></g></g><g id="freepik--speech-bubble-1--inject-10"><g id="freepik--speech-bubble--inject-10"><g id="freepik--speech-bubble--inject-10"><path d="M75,104.87,71,102.52a1.24,1.24,0,0,1-.44-.44l-1.27-2.19,2.05-1.18,3.31,5.73A1.21,1.21,0,0,0,75,104.87Z" style="fill:#673AB7"></path><g style="opacity:0.2"><path d="M75,104.87,71,102.52a1.24,1.24,0,0,1-.44-.44l-1.27-2.19,2.05-1.18,3.31,5.73A1.21,1.21,0,0,0,75,104.87Z"></path></g><path d="M89.47,41.68c-.07-.49-.47-.66-1-.38L49.81,63.67a2.15,2.15,0,0,0-.68.72l-5.36-3.06a2.15,2.15,0,0,1,.66-.68L83.15,38.27a2.15,2.15,0,0,1,1.93,0l3.44,1.93A2.1,2.1,0,0,1,89.47,41.68Z" style="fill:#673AB7"></path><path d="M89.47,41.68c-.07-.49-.47-.66-1-.38L49.81,63.67a2.15,2.15,0,0,0-.68.72l-5.36-3.06a2.15,2.15,0,0,1,.66-.68L83.15,38.27a2.15,2.15,0,0,1,1.93,0l3.44,1.93A2.1,2.1,0,0,1,89.47,41.68Z" style="fill:#fff;opacity:0.45"></path><path d="M49.81,111.1a2.22,2.22,0,0,1-1.93,0l-3.44-2a2.09,2.09,0,0,1-1-1.65V62.32a2,2,0,0,1,.31-1l5.35,3.06a2,2,0,0,0-.28,1v45.21C48.85,111.11,49.24,111.43,49.81,111.1Z" style="fill:#673AB7"></path><path d="M49.81,111.1a2.22,2.22,0,0,1-1.93,0l-3.44-2a2.09,2.09,0,0,1-1-1.65V62.32a2,2,0,0,1,.31-1l5.35,3.06a2,2,0,0,0-.28,1v45.21C48.85,111.11,49.24,111.43,49.81,111.1Z" style="opacity:0.2"></path><path d="M88.53,41.3,49.81,63.67a2.13,2.13,0,0,0-1,1.67v45.21c0,.61.43.86,1,.55L71.29,98.71l3.31,5.73a1.22,1.22,0,0,0,2.2-.21l3.77-10.88,8-4.62a2.13,2.13,0,0,0,1-1.66V41.85C89.49,41.24,89.06,41,88.53,41.3Z" style="fill:#fafafa"></path><path d="M88.89,41.78V87.07a1.55,1.55,0,0,1-.66,1.15l-8,4.61-.19.11-.07.21L76.24,104a.62.62,0,0,1-.59.41.6.6,0,0,1-.53-.31l-3.31-5.73-.3-.52-.52.3-21.48,12.4-.06,0V65.34a1.53,1.53,0,0,1,.66-1.15L88.82,41.81l.07,0m.07-.61a.85.85,0,0,0-.43.13L49.81,63.67a2.13,2.13,0,0,0-1,1.67v45.21c0,.43.22.69.53.69a.87.87,0,0,0,.43-.14L71.29,98.71l3.31,5.73a1.21,1.21,0,0,0,2.2-.21l3.77-10.88,8-4.62a2.13,2.13,0,0,0,1-1.66V41.85c0-.43-.22-.68-.53-.68Z" style="fill:#673AB7"></path></g><path d="M69.71,87.66c-8.78,5.06-14.52-.81-14.57-.87l-.2-.2.2-.43c0-.13,5.79-12.77,14.57-17.84s14.52,1,14.57,1l.19.21-.19.43C84.22,70.09,78.49,82.59,69.71,87.66ZM55.93,86c1.08,1,6.28,5,13.78.63S82.41,72.31,83.49,70.1c-1.07-1-6.28-5.11-13.78-.78S57,83.79,55.93,86Z" style="fill:#455a64"></path><path d="M83,63.51A10,10,0,0,0,80.1,62a10.57,10.57,0,0,0-3.23-.61,13.6,13.6,0,0,0-7.16,2,28.32,28.32,0,0,0-7.16,6.31A44.46,44.46,0,0,0,59.32,74a52.76,52.76,0,0,0-2.89,4.86,45.73,45.73,0,0,1,5.88-9.73,27.4,27.4,0,0,1,7.4-6.75,12.19,12.19,0,0,1,7.4-1.79A9.11,9.11,0,0,1,83,63.51Z" style="fill:#455a64"></path><path d="M75.25,74.78c0,4.09-2.48,8.83-5.54,10.6s-5.55-.11-5.55-4.19,2.49-8.83,5.55-10.6S75.25,70.7,75.25,74.78Z" style="fill:#455a64"></path><path d="M72.39,76.44a6.43,6.43,0,0,1-2.68,5.12c-1.48.85-2.68-.06-2.68-2a6.43,6.43,0,0,1,2.68-5.12C71.19,73.56,72.39,74.47,72.39,76.44Z" style="fill:#263238"></path><path d="M73.37,73.41a2.92,2.92,0,0,1-1.22,2.33c-.67.38-1.22,0-1.22-.93a2.93,2.93,0,0,1,1.22-2.32C72.83,72.1,73.37,72.51,73.37,73.41Z" style="fill:#fff"></path></g></g><g id="freepik--Plant--inject-10"><g id="freepik--plant--inject-10"><g id="freepik--Pot--inject-10"><path d="M441.47,350.39c-5.69-5.88-9-20.74-3.48-25.4h28.27c5.56,4.66,2.22,19.51-3.48,25.39l-.15.16-.2.2c-.16.15-.33.31-.51.46l-.14.11-.43.33a8.35,8.35,0,0,1-.74.47c-4.68,2.74-12.28,2.74-17,0h0a6.66,6.66,0,0,1-.74-.48l-.4-.3-.17-.14c-.18-.14-.34-.29-.5-.44l-.22-.23Z" style="fill:#37474f"></path><path d="M463.81,323.11c6.45,3.77,6.45,9.87,0,13.64s-16.91,3.77-23.37,0-6.45-9.87,0-13.64S457.36,319.34,463.81,323.11Z" style="fill:#455a64"></path><path d="M460.71,324.92c4.73,2.77,4.73,7.25,0,10s-12.42,2.76-17.16,0-4.74-7.25,0-10S456,322.15,460.71,324.92Z" style="fill:#263238"></path><path d="M443.55,329.68c4.74-2.77,12.42-2.77,17.16,0a7.81,7.81,0,0,1,2.83,2.63,7.89,7.89,0,0,1-2.83,2.63c-4.74,2.76-12.42,2.76-17.16,0a7.85,7.85,0,0,1-2.84-2.63A7.76,7.76,0,0,1,443.55,329.68Z" style="fill:#fff"></path></g><path d="M448.26,302.49c-1.91,2.41-7.65,3.48-10.5-2.43-2.69-5.54-5.52-10.77-6.37-12.82a2.16,2.16,0,0,1,1.17-2.89s-.08-3.15,5.4-1.43,9.48,4.66,12.2,9.71S451.76,301.52,448.26,302.49Z" style="fill:#673AB7"></path><g style="opacity:0.5"><path d="M448.26,302.49c-1.91,2.41-7.65,3.48-10.5-2.43-2.69-5.54-5.52-10.77-6.37-12.82a2.16,2.16,0,0,1,1.17-2.89s-.08-3.15,5.4-1.43,9.48,4.66,12.2,9.71S451.76,301.52,448.26,302.49Z" style="fill:#fff"></path></g><path d="M451.17,310.37a27.92,27.92,0,0,0-.7-3.14,46,46,0,0,0-2.23-6,45.36,45.36,0,0,0-7-10.9,39.31,39.31,0,0,0-5.27-5.13c-.05,0-.09.08-.05.12a48.45,48.45,0,0,1,8.39,9.9,49.08,49.08,0,0,1,5.29,11.55c.35,1.14.69,2.28,1,3.43s.52,2.36.81,3.53c0,.12.22.18.22,0A22.62,22.62,0,0,0,451.17,310.37Z" style="fill:#673AB7"></path><path d="M451.17,310.37a27.92,27.92,0,0,0-.7-3.14,46,46,0,0,0-2.23-6,45.36,45.36,0,0,0-7-10.9,39.31,39.31,0,0,0-5.27-5.13c-.05,0-.09.08-.05.12a48.45,48.45,0,0,1,8.39,9.9,49.08,49.08,0,0,1,5.29,11.55c.35,1.14.69,2.28,1,3.43s.52,2.36.81,3.53c0,.12.22.18.22,0A22.62,22.62,0,0,0,451.17,310.37Z" style="opacity:0.30000000000000004"></path><path d="M454.47,298.26c-5,1.54-8.67-2.35-7.39-8.44s7.68-12.85,10.09-11c1.51-1.51,4.84-1,6.4,4S463.72,300.42,454.47,298.26Z" style="fill:#673AB7"></path><g style="opacity:0.30000000000000004"><path d="M454.47,298.26c-5,1.54-8.67-2.35-7.39-8.44s7.68-12.85,10.09-11c1.51-1.51,4.84-1,6.4,4S463.72,300.42,454.47,298.26Z" style="fill:#fff"></path></g><path d="M457.39,282.49a67.09,67.09,0,0,0-3.31,10.95,110.46,110.46,0,0,0-1.92,11.46c-.89,7.44-1,7-1,14.51,0,2.07,0,4.15.08,6.22s0,4.29.19,6.41c.07.82,1.23.6,1.24-.15.07-3.73-.13-7.47-.17-11.2a25.16,25.16,0,0,1,.07-3.13,154.66,154.66,0,0,1,2-22.43c.35-2.06.74-4.13,1.23-6.16s1.12-4.27,1.69-6.4C457.54,282.49,457.44,282.38,457.39,282.49Z" style="fill:#673AB7"></path><path d="M457.39,282.49a67.09,67.09,0,0,0-3.31,10.95,110.46,110.46,0,0,0-1.92,11.46c-.89,7.44-1,7-1,14.51,0,2.07,0,4.15.08,6.22s0,4.29.19,6.41c.07.82,1.23.6,1.24-.15.07-3.73-.13-7.47-.17-11.2a25.16,25.16,0,0,1,.07-3.13,154.66,154.66,0,0,1,2-22.43c.35-2.06.74-4.13,1.23-6.16s1.12-4.27,1.69-6.4C457.54,282.49,457.44,282.38,457.39,282.49Z" style="opacity:0.30000000000000004"></path><path d="M443,314.72c-.64,3.22-5,5.55-10.15,3.44s-15.16-15.37-10.56-16.83c-.25-2.4,13.64-4.38,20.51,4.09C447.75,311.58,443,314.72,443,314.72Z" style="fill:#673AB7"></path><path d="M450.25,319.5a24.77,24.77,0,0,0-2.07-2.27,62.06,62.06,0,0,0-4.69-4.19,62.92,62.92,0,0,0-10.75-6.92,57.39,57.39,0,0,0-6.49-2.95c-.07,0,0,.1,0,.12,1.85.87,3.71,1.72,5.5,2.73a62.8,62.8,0,0,1,5.4,3.4,80.48,80.48,0,0,1,9.5,7.77c.84.81,1.63,1.66,2.48,2.45s1.83,1.59,2.67,2.46c.12.12.34.07.21-.11C451.41,321.17,450.87,320.31,450.25,319.5Z" style="fill:#673AB7"></path><path d="M450.25,319.5a24.77,24.77,0,0,0-2.07-2.27,62.06,62.06,0,0,0-4.69-4.19,62.92,62.92,0,0,0-10.75-6.92,57.39,57.39,0,0,0-6.49-2.95c-.07,0,0,.1,0,.12,1.85.87,3.71,1.72,5.5,2.73a62.8,62.8,0,0,1,5.4,3.4,80.48,80.48,0,0,1,9.5,7.77c.84.81,1.63,1.66,2.48,2.45s1.83,1.59,2.67,2.46c.12.12.34.07.21-.11C451.41,321.17,450.87,320.31,450.25,319.5Z" style="opacity:0.30000000000000004"></path><path d="M471.18,310.84c-.08-1.82-9.23-1.72-13.51,1.72s-4.79,6.83-2.12,8c-.47,3.83,5.58,6.36,11,1.57S473.13,311.22,471.18,310.84Z" style="fill:#673AB7"></path><path d="M471.18,310.84c-.08-1.82-9.23-1.72-13.51,1.72s-4.79,6.83-2.12,8c-.47,3.83,5.58,6.36,11,1.57S473.13,311.22,471.18,310.84Z" style="fill:#fff;opacity:0.30000000000000004"></path><path d="M462.17,315.63a23.16,23.16,0,0,0-5.71,3.66,22.85,22.85,0,0,0-4.38,5.22c-.14.22.21.65.36.41a26.23,26.23,0,0,1,9.74-9.23S462.21,315.61,462.17,315.63Z" style="fill:#673AB7"></path><path d="M462.17,315.63a23.16,23.16,0,0,0-5.71,3.66,22.85,22.85,0,0,0-4.38,5.22c-.14.22.21.65.36.41a26.23,26.23,0,0,1,9.74-9.23S462.21,315.61,462.17,315.63Z" style="opacity:0.30000000000000004"></path><path d="M456.1,326.45c-3.1,3,.32,6.81,5.34,8.67a17.93,17.93,0,0,0,13-.6,10.53,10.53,0,0,0,2.92-1.81,31,31,0,0,0-2.57-6.15,12.84,12.84,0,0,0-12.66-5.81C455.7,321.57,455.18,324.24,456.1,326.45Z" style="fill:#673AB7"></path><path d="M469.09,328.74a32.29,32.29,0,0,0-7.87-2.92c-2.69-.52-6-.54-8.19,1.38-.84.74-2,2.35-1.28,3.49.07.12.41.33.49.1a11.08,11.08,0,0,1,.69-2.11,4.32,4.32,0,0,1,1.68-1.58,10,10,0,0,1,5.71-1,31.18,31.18,0,0,1,8.76,2.68S469.11,328.75,469.09,328.74Z" style="fill:#673AB7"></path><path d="M469.09,328.74a32.29,32.29,0,0,0-7.87-2.92c-2.69-.52-6-.54-8.19,1.38-.84.74-2,2.35-1.28,3.49.07.12.41.33.49.1a11.08,11.08,0,0,1,.69-2.11,4.32,4.32,0,0,1,1.68-1.58,10,10,0,0,1,5.71-1,31.18,31.18,0,0,1,8.76,2.68S469.11,328.75,469.09,328.74Z" style="opacity:0.30000000000000004"></path><path d="M457,307.29c-.78,2.72,2.69,5.26,7,3.81s8.8-2.81,12.48-2.85,6-2.47,5.26-4.1-1.65-5.51-11-6.62-13.61,2.2-15.57,4.79S455.38,307.75,457,307.29Z" style="fill:#673AB7"></path><path d="M474.37,301.58a11.41,11.41,0,0,0-3-.28,19.17,19.17,0,0,0-2.92.24,22.31,22.31,0,0,0-5.51,1.72c-3.3,1.46-6.57,3.37-8.71,6.33a21.26,21.26,0,0,0-2.76,5.17c-.12.35.55.55.71.24a39.14,39.14,0,0,1,2.34-4.5,14,14,0,0,1,3.59-3.74A28.58,28.58,0,0,1,468,302.2a19,19,0,0,1,3.18-.46,28.35,28.35,0,0,1,3.19.12C474.54,301.86,474.47,301.6,474.37,301.58Z" style="fill:#673AB7"></path><path d="M474.37,301.58a11.41,11.41,0,0,0-3-.28,19.17,19.17,0,0,0-2.92.24,22.31,22.31,0,0,0-5.51,1.72c-3.3,1.46-6.57,3.37-8.71,6.33a21.26,21.26,0,0,0-2.76,5.17c-.12.35.55.55.71.24a39.14,39.14,0,0,1,2.34-4.5,14,14,0,0,1,3.59-3.74A28.58,28.58,0,0,1,468,302.2a19,19,0,0,1,3.18-.46,28.35,28.35,0,0,1,3.19.12C474.54,301.86,474.47,301.6,474.37,301.58Z" style="opacity:0.30000000000000004"></path><path d="M449.26,322.62c-.74-2.79-4.28-4.36-8.92-4.71a12.11,12.11,0,0,0-11.52,5.92c-2.43,4.14-3.43,7.44-2,8s7.7,1.41,11.72,1.76,9-.36,12.31-3.42S453.09,323.27,449.26,322.62Z" style="fill:#673AB7"></path><path d="M449.26,322.62c-.74-2.79-4.28-4.36-8.92-4.71a12.11,12.11,0,0,0-11.52,5.92c-2.43,4.14-3.43,7.44-2,8s7.7,1.41,11.72,1.76,9-.36,12.31-3.42S453.09,323.27,449.26,322.62Z" style="fill:#fff;opacity:0.30000000000000004"></path><path d="M449.43,322.25a12.43,12.43,0,0,0-5-.23,21.85,21.85,0,0,0-4.72,1.09,30.68,30.68,0,0,0-4.68,2.1c-.78.43-1.55.89-2.31,1.37a18.56,18.56,0,0,0-2.07,1.43s0,.12,0,.1a24.78,24.78,0,0,0,2.2-1.23c.79-.44,1.58-.87,2.38-1.28a33.82,33.82,0,0,1,4.64-2,22.27,22.27,0,0,1,4.91-1.05,30.59,30.59,0,0,1,4.69.12C449.8,322.72,449.62,322.32,449.43,322.25Z" style="fill:#673AB7"></path><path d="M449.43,322.25a12.43,12.43,0,0,0-5-.23,21.85,21.85,0,0,0-4.72,1.09,30.68,30.68,0,0,0-4.68,2.1c-.78.43-1.55.89-2.31,1.37a18.56,18.56,0,0,0-2.07,1.43s0,.12,0,.1a24.78,24.78,0,0,0,2.2-1.23c.79-.44,1.58-.87,2.38-1.28a33.82,33.82,0,0,1,4.64-2,22.27,22.27,0,0,1,4.91-1.05,30.59,30.59,0,0,1,4.69.12C449.8,322.72,449.62,322.32,449.43,322.25Z" style="opacity:0.30000000000000004"></path></g></g><g id="freepik--character-2--inject-10"><g id="freepik--Desk--inject-10"><g id="freepik--desk--inject-10"><polygon points="275.81 312.64 278.86 310.88 278.86 388.41 275.81 390.16 275.81 312.64" style="fill:#455a64"></polygon><polygon points="275.81 312.64 272.77 310.88 272.77 388.41 275.81 390.16 275.81 312.64" style="fill:#37474f"></polygon><polygon points="227.75 284.88 230.79 283.13 230.79 360.65 227.75 362.41 227.75 284.88" style="fill:#455a64"></polygon><polygon points="227.75 284.88 224.7 283.13 224.7 360.65 227.75 362.41 227.75 284.88" style="fill:#37474f"></polygon><polygon points="384.22 250.15 387.26 248.39 387.26 325.91 384.22 327.67 384.22 250.15" style="fill:#455a64"></polygon><polygon points="384.22 250.15 381.17 248.39 381.17 325.91 384.22 327.67 384.22 250.15" style="fill:#37474f"></polygon><g id="freepik--desk--inject-10"><path d="M398.55,245.45v-2.26a2.07,2.07,0,0,0-.93-1.61L330.36,202.7a2.06,2.06,0,0,0-1.87,0L207.62,272.48a2.07,2.07,0,0,0-.93,1.61v2.26a2.08,2.08,0,0,0,.93,1.62l67.26,38.88a2,2,0,0,0,1.86,0l120.88-69.79A2.06,2.06,0,0,0,398.55,245.45Z" style="fill:#263238"></path><path d="M275.81,312.66v4.41a2,2,0,0,0,.93-.22l120.87-69.79a2,2,0,0,0,.94-1.61v-2.26a2.09,2.09,0,0,0-.76-1.49c.33.29.28.69-.18,1L276.74,312.44A1.88,1.88,0,0,1,275.81,312.66Z" style="fill:#37474f"></path><path d="M397.62,242.65,276.74,312.44a2,2,0,0,1-1.86,0l-67.26-38.88a.57.57,0,0,1,0-1.08L328.49,202.7a2.06,2.06,0,0,1,1.87,0l67.26,38.88A.57.57,0,0,1,397.62,242.65Z" style="fill:#455a64"></path></g></g><g id="freepik--Papers--inject-10"><path id="freepik--shadow--inject-10" d="M273.62,306.11a2.33,2.33,0,0,0,1.17-.29l19.55-11.28a1.06,1.06,0,0,0,.59-.9,1,1,0,0,0-.59-.89l-3.49-2,1.67-1a1,1,0,0,0,0-1.79l-28.77-16.61a2.44,2.44,0,0,0-1.17-.29,2.41,2.41,0,0,0-1.17.29l-19.55,11.29a1.06,1.06,0,0,0-.6.89,1.07,1.07,0,0,0,.6.9l3.49,2-1.67,1a1,1,0,0,0,0,1.78l28.76,16.61A2.34,2.34,0,0,0,273.62,306.11Z" style="fill:#37474f"></path><path d="M243.46,286.81a.67.67,0,0,1,.41-.57L263.41,275a2.2,2.2,0,0,1,2,0l28.77,16.61a.69.69,0,0,1,.4.57V293a.67.67,0,0,1-.4.56L274.6,304.87a2.2,2.2,0,0,1-2,0l-28.76-16.61a.69.69,0,0,1-.41-.56Z" style="fill:#ebebeb"></path><path d="M294.15,291.56,265.38,275a2.2,2.2,0,0,0-2,0l-19.54,11.29a.59.59,0,0,0,0,1.13L272.63,304a2.14,2.14,0,0,0,2,0l19.55-11.28A.6.6,0,0,0,294.15,291.56Z" style="fill:#fff"></path><path d="M273.62,304.22v.88a2,2,0,0,0,1-.23l19.54-11.28a.69.69,0,0,0,.41-.57v-.89a.65.65,0,0,1-.41.56L274.6,304A2,2,0,0,1,273.62,304.22Z" style="fill:#e0e0e0"></path><path d="M241.64,282a.7.7,0,0,1,.41-.57l19.55-11.29a2.18,2.18,0,0,1,2,0l28.77,16.61a.7.7,0,0,1,.41.57v.89a.72.72,0,0,1-.41.57L272.78,300.1a2.18,2.18,0,0,1-2,0l-28.77-16.61a.69.69,0,0,1-.41-.56Z" style="fill:#ebebeb"></path><path d="M292.33,286.79l-28.77-16.61a2.18,2.18,0,0,0-2,0l-19.55,11.29a.6.6,0,0,0,0,1.13l28.77,16.61a2.12,2.12,0,0,0,2,0l19.55-11.28A.6.6,0,0,0,292.33,286.79Z" style="fill:#fff"></path><path d="M271.8,299.45v.88a2,2,0,0,0,1-.23l19.55-11.28a.7.7,0,0,0,.41-.57v-.89a.7.7,0,0,1-.41.57l-19.55,11.28A2,2,0,0,1,271.8,299.45Z" style="fill:#e0e0e0"></path></g><g id="freepik--black-pencil--inject-10"><polygon id="freepik--shadow--inject-10" points="333.19 229.62 314.94 240.13 317.13 241.4 335.25 230.81 337.05 228.29 333.19 229.62" style="fill:#37474f"></polygon><g id="freepik--Pencil--inject-10"><path d="M334.53,230l2.12-2.53a.1.1,0,0,0-.1-.16l-3.24.72Z" style="fill:#f0997a"></path><path d="M336.57,227.32h0l-3.24.72.64,1,.35-.21,2.27-1.43Z" style="fill:#ffbda7"></path><path d="M336.55,227.32a.1.1,0,0,1,.1.16l-.41.5h0a.55.55,0,0,0-.33-.48l-.05,0Z" style="fill:#263238"></path><path d="M318.64,236.89l.26-.15.31-.2,14.1-8.5a1.43,1.43,0,0,1,.9.6,1.52,1.52,0,0,1,.31,1.37l-14.09,8.5-.6.37C320.21,238.62,319,236.64,318.64,236.89Z" style="fill:#673AB7"></path><path d="M318.64,236.89l.26-.15.31-.2,14.1-8.5a1.43,1.43,0,0,1,.9.6,1.52,1.52,0,0,1,.31,1.37l-14.09,8.5-.6.37C320.21,238.62,319,236.64,318.64,236.89Z" style="opacity:0.1"></path><path d="M318.64,236.89l.26-.15.31-.2,14.1-8.5a1.55,1.55,0,0,1,1,.8l-14.7,9s0,.05,0,.05C319.32,237.31,318.85,236.75,318.64,236.89Z" style="fill:#673AB7"></path><path d="M319.63,236.29l.59-.35c.16-.11.49.18.78.58s.62,1.26.4,1.41l-.43.26-.15.09c.22-.15,0-.89-.41-1.41s-.59-.67-.76-.59h0Z" style="fill:#ebebeb"></path><path d="M319.78,236.2c.38-.25,1.57,1.74,1.18,2l-.58.36c.38-.26-.8-2.24-1.19-2Z" style="fill:#37474f"></path><path d="M318.64,236.89l.57-.35c.38-.25,1.54,1.66,1.22,2,0,0,0,0,0,0l-.58.35C320.21,238.62,319,236.64,318.64,236.89Z" style="fill:#ebebeb"></path><path d="M316.19,238.38l2.45-1.49c.16-.11.48.19.77.58s.64,1.26.42,1.41h0l-2.46,1.49c-.49.29-1.21-.63-1.36-1.35A.57.57,0,0,1,316.19,238.38Z" style="fill:#f0997a"></path><path d="M316.93,238.62a1.8,1.8,0,0,1,.58,1.48.36.36,0,0,1-.22.3c-.49.16-1.14-.7-1.28-1.38a.59.59,0,0,1,.17-.64C316.36,238.27,316.65,238.35,316.93,238.62Z" style="opacity:0.1"></path></g></g><g id="freepik--Devices--inject-10"><g id="freepik--Keyboard--inject-10"><path id="freepik--shadow--inject-10" d="M278.09,273.56l14.94,8.7a1.78,1.78,0,0,0,1.59,0l42-24.23c.44-.25.44-.66,0-.92l-14.94-8.7a1.78,1.78,0,0,0-1.59,0l-42,24.23C277.65,272.89,277.65,273.3,278.09,273.56Z" style="fill:#37474f"></path><g id="freepik--keyboard--inject-10"><path d="M335.49,255.33a.56.56,0,0,0-.33-.46l-13.3-7.68a1.76,1.76,0,0,0-1.58,0L279.7,270.66a.55.55,0,0,0-.32.46v1.39a.56.56,0,0,0,.33.46L293,280.64a1.76,1.76,0,0,0,1.58,0l40.58-23.42a.57.57,0,0,0,.33-.46Z" style="fill:#455a64"></path><path d="M293,279.21l-13.29-7.64a.48.48,0,0,1,0-.91l40.58-23.47a1.76,1.76,0,0,1,1.58,0l13.3,7.68c.44.25.44.66,0,.92l-40.58,23.42A1.76,1.76,0,0,1,293,279.21Z" style="fill:#fafafa"></path><path d="M293.74,279.4v1.43a1.67,1.67,0,0,1-.75-.19L279.71,273a.56.56,0,0,1-.33-.46v-1.4a.56.56,0,0,0,.33.46L293,279.21A1.55,1.55,0,0,0,293.74,279.4Z" style="fill:#263238"></path><path d="M293.84,278h0l-1.32-.76,1.78-1,1.36.76-1.78,1Zm-2.06-1.19h0l-1.32-.76,1.4-.81,1.36.76-1.4.81Zm4.56-.25h0L295,275.8l1.41-.81,1.36.76-1.4.81Zm-6.62-.94h0l-1.31-.76,2.26-1.31,1.37.77-2.27,1.3Zm4.18,0h0l-1.32-.76,1.11-.64L295,275l-1.11.64Zm4.55-.25h0l-1.32-.76,1.41-.81,1.36.77-1.4.8Zm-2.73-.81h0l-1.32-.76,1.12-.64,1.36.76-1.12.64Zm-8.06-.1h0l-1.31-.76,1.78-1,1.36.76-1.78,1Zm12.9-.31h0l-1.32-.76,10.14-5.85,1.36.77-10.13,5.84Zm-7.86-.22h0l-1.32-.76,1.12-.64,1.36.76-1.12.65Zm4.84-.42h0l-1.32-.76,1.12-.65,1.36.77-1.11.64Zm-11.94-.24h0l-1.31-.76,1.11-.64,1.36.76-1.11.64Zm4.56-.25h0l-1.32-.76,1.12-.64,1.36.76-1.11.64Zm4.36-.15h0l-1.31-.76,1.11-.64,1.36.76-1.11.64Zm4.84-.41h0l-1.31-.76,1.11-.64,1.36.77-1.11.64Zm-11.93-.25h0l-1.32-.76,1.11-.64,1.37.76-1.12.64Zm4.55-.25h0l-1.31-.76,1.11-.65,1.36.77-1.11.64Zm4.36-.14h0L295,271l1.11-.65,1.36.77-1.11.64Zm-13.24,0h0l-1.31-.76,1.4-.81,1.36.76-1.4.81Zm18.09-.41h0l-1.32-.76L301,270l1.36.76-1.11.64Zm-11.94-.25h0l-1.32-.76,1.12-.65,1.36.77-1.11.64Zm4.55-.25h0l-1.31-.76,1.11-.65,1.36.77-1.11.64Zm4.37-.14h0l-1.32-.75,1.12-.65,1.36.77-1.12.64Zm4.84-.42h0l-1.32-.76,1.12-.64,1.36.76-1.11.64Zm-17-.2h0l-1.32-.76,1.12-.64,1.36.76-1.12.64Zm5.06,0h0l-1.31-.76,1.11-.64,1.36.77-1.11.64Zm4.56-.25h0l-1.32-.76,1.12-.64,1.36.76-1.12.65Zm4.36-.14h0l-1.32-.76,1.12-.64,1.36.77-1.11.64Zm4.84-.42h0l-1.31-.76,1.11-.65,1.36.77-1.11.64Zm-17-.21h0l-1.31-.76,1.11-.64,1.36.76-1.11.64Zm5.06,0h0l-1.32-.76,1.11-.64,1.36.76-1.11.64Zm4.56-.25h0L296.1,268l1.12-.64,1.36.76-1.11.64Zm4.36-.14h0l-1.31-.76,1.11-.64,1.36.76-1.11.64Zm4.84-.42h0l-1.31-.76,1.11-.64,1.36.77-1.11.64Zm-17-.21h0l-1.31-.76,1.11-.65,1.36.77-1.11.64Zm5.07,0h0l-1.32-.76,1.12-.64,1.36.76-1.12.64Zm16.68-.11h0l-1.32-.76,1.41-.81,1.36.77-1.4.81Zm-12.13-.14h0l-1.31-.76,1.11-.65,1.36.77-1.11.64Zm4.36-.14h0l-1.32-.76,1.11-.64,1.36.76-1.11.64Zm4.85-.41h0l-1.32-.76,1.12-.64,1.36.76-1.12.65Zm-17-.21s0,0,0,0l-1.32-.76,1.11-.64,1.36.77-1.11.64Zm5.06,0h0l-1.32-.76,1.12-.65,1.36.77-1.11.64Zm4.56-.25h0l-1.32-.76,1.11-.65,1.36.77-1.11.64Zm12.41,0h0l-1.31-.76,1.4-.81,1.36.77-1.4.81Zm-8.05-.11h0l-1.32-.76,1.12-.65,1.36.77-1.12.64Zm4.84-.42h0l-1.32-.76,1.12-.64,1.36.76-1.11.64Zm-11.94-.24h0l-1.31-.76,1.11-.64,1.36.77-1.11.64Zm4.56-.25h0l-1.32-.76,1.12-.64,1.36.77-1.12.64Zm4.36-.14h0l-1.32-.76,1.12-.64,1.36.77-1.11.64Zm-13.19,0h0l-1.31-.76,1.11-.64,1.36.77-1.11.64Zm21.53,0h0l-1.31-.76,1.4-.81,1.36.76-1.4.81Zm-3.5-.36h0l-1.31-.76,1.11-.65,1.36.77-1.11.64Zm-11.93-.24h0l-1.31-.76,1.11-.64,1.37.76-1.12.65Zm4.55-.25h0l-1.32-.76,1.12-.64,1.36.76-1.11.64Zm4.36-.14h0l-1.31-.76,1.11-.64,1.36.76-1.11.65Zm-13.19,0h0l-1.31-.76,1.11-.64,1.36.76-1.11.64Zm21.82-.2h0l-1.31-.76,1.78-1,1.36.76-1.78,1ZM314,264h0l-1.32-.76,3.51-2,1.36.76L314,264ZM302,263.77h0l-1.32-.76,1.12-.64,1.36.76-1.11.64Zm4.55-.25h0l-1.31-.76,1.11-.64,1.36.76-1.11.64Zm4.36-.14h0l-1.32-.76,1.11-.64,1.36.76-1.11.64Zm-13.18,0h0l-1.32-.76,1.12-.64,1.36.76-1.12.64Zm6.09-.63h0l-1.31-.76,1.11-.65,1.36.77-1.11.64Zm16.78-.17h0l-1.32-.76,1.12-.65,1.36.77-1.11.64Zm-12.22-.08h0l-1.32-.76,1.11-.65,1.36.77-1.11.64Zm4.36-.14h0l-1.32-.76,1-.59a.21.21,0,0,0,.11-.19.21.21,0,0,0-.12-.19l-1.72-1,1.3-.75,3.42,1.95-2.65,1.53Zm-13.19,0h0l-1.32-.76,1.12-.65,1.36.77-1.11.64Zm6.09-.63h0l-1.31-.75,1.11-.65,1.36.77-1.11.64Zm16.78-.17h0l-1.31-.76,1.11-.64,1.36.77-1.11.64Zm-12.22-.08h0l-1.32-.76L310,260l1.36.77-1.11.64Zm-8-.63h0l-1.32-.76,1.11-.65,1.36.77-1.11.64Zm5.3-.17h0l-1.32-.76,1.12-.64,1.36.76-1.12.65Zm16.78-.17h0l-1.31-.76L324,259l1.36.76-1.11.64Zm-3.89-.14h0l-1.31-.76,1.11-.64,1.36.77-1.11.64ZM304,259.74h0l-1.32-.76,1.12-.64,1.36.77-1.12.64Zm5.3-.17h0L308,258.8l2-1.14,1.36.76-2,1.14Zm17.16-.4h0l-1.31-.76,2.93-1.7,1.36.77-2.93,1.69Zm-12-.19h0l-1.32-.76,1.12-.65,1.36.77-1.11.64Zm-8.61-.29h0l-1.32-.76,1.12-.64L307,258l-1.11.65ZM324.4,258h0l-1.31-.76,1.11-.65,1.36.77-1.11.64Zm-8.15-.05h0l-1.31-.76,1.11-.64,1.36.77-1.11.64Zm-3.88-.14h0L311,257l1.12-.65,1.36.77-1.11.64Zm-4.73-.16h0l-1.31-.76,1.11-.64,1.36.76-1.11.64Zm22.47-.56h0l-1.32-.76,1.12-.64,1.36.76-1.12.65Zm-3.89-.14h0l-1.31-.75,1.11-.65,1.36.77-1.11.64Zm-8.15-.05h0l-1.31-.76,1.11-.64,1.36.76-1.11.65Zm4.27-.09h0L321,256l1.11-.64,1.36.76-1.11.64Zm-8.15-.05h0l-1.31-.75,1.11-.65,1.36.77-1.11.64Zm-4.32-.39s0,0,0,0l-1.32-.76,1.12-.64,1.36.77-1.11.64Zm22.06-.34h0l-3.38-1.95,1.12-.64,3.42,2L332,256Zm-3.88-.13h0l-1.32-.76,1.12-.64,1.36.76-1.12.65Zm-3.89-.14h0l-1.31-.75,1.11-.65,1.36.77-1.11.64Zm-8.15-.05h0l-1.31-.76,1.11-.64,1.36.77-1.11.64Zm4.27-.09h0l-1.32-.76,1.12-.64,1.36.76-1.11.64Zm-8.59-.3h0l-1.31-.76,1.11-.64,1.36.76-1.11.65Zm14.3-.61h0l-1.32-.76,1.12-.64,1.36.76-1.12.65Zm-3.89-.14h0l-1.32-.76,1.11-.65,1.36.77-1.11.64Zm-3.88-.14h0l-1.31-.76L318,253l1.36.76-1.11.64Zm-4.71-.17h0l-1.32-.76,1.11-.64,1.36.76-1.11.64Zm14.3-.6h0l-3.38-1.95,1.12-.64,3.42,2-1.11.64Zm-3.88-.14h0l-1.32-.76,1.12-.64,1.36.77-1.12.64Zm-3.89-.14h0l-1.32-.76,1.11-.65,1.36.77-1.11.64Zm-4.85-.7h0l-.57-.32,1.11-.65.62.33-1.11.64Zm6.68-.35h0l-1.32-.76,1.12-.64,1.36.77-1.12.64Zm-4.86-.7h0l-.57-.33,1.12-.64.61.33-1.11.64Zm6.68-.35h0l-1.32-.76,1.12-.64,1.36.76-1.11.65Zm-4.85-.7h0l-.57-.33,1.11-.64.61.33-1.11.64Zm1.82-1.05h0l-.57-.32,1.11-.64.61.33-1.1.64Z" style="fill:#673AB7"></path><path d="M293.84,278h0l-1.32-.76,1.78-1,1.36.76-1.78,1Zm-2.06-1.19h0l-1.32-.76,1.4-.81,1.36.76-1.4.81Zm4.56-.25h0L295,275.8l1.41-.81,1.36.76-1.4.81Zm-6.62-.94h0l-1.31-.76,2.26-1.31,1.37.77-2.27,1.3Zm4.18,0h0l-1.32-.76,1.11-.64L295,275l-1.11.64Zm4.55-.25h0l-1.32-.76,1.41-.81,1.36.77-1.4.8Zm-2.73-.81h0l-1.32-.76,1.12-.64,1.36.76-1.12.64Zm-8.06-.1h0l-1.31-.76,1.78-1,1.36.76-1.78,1Zm12.9-.31h0l-1.32-.76,10.14-5.85,1.36.77-10.13,5.84Zm-7.86-.22h0l-1.32-.76,1.12-.64,1.36.76-1.12.65Zm4.84-.42h0l-1.32-.76,1.12-.65,1.36.77-1.11.64Zm-11.94-.24h0l-1.31-.76,1.11-.64,1.36.76-1.11.64Zm4.56-.25h0l-1.32-.76,1.12-.64,1.36.76-1.11.64Zm4.36-.15h0l-1.31-.76,1.11-.64,1.36.76-1.11.64Zm4.84-.41h0l-1.31-.76,1.11-.64,1.36.77-1.11.64Zm-11.93-.25h0l-1.32-.76,1.11-.64,1.37.76-1.12.64Zm4.55-.25h0l-1.31-.76,1.11-.65,1.36.77-1.11.64Zm4.36-.14h0L295,271l1.11-.65,1.36.77-1.11.64Zm-13.24,0h0l-1.31-.76,1.4-.81,1.36.76-1.4.81Zm18.09-.41h0l-1.32-.76L301,270l1.36.76-1.11.64Zm-11.94-.25h0l-1.32-.76,1.12-.65,1.36.77-1.11.64Zm4.55-.25h0l-1.31-.76,1.11-.65,1.36.77-1.11.64Zm4.37-.14h0l-1.32-.75,1.12-.65,1.36.77-1.12.64Zm4.84-.42h0l-1.32-.76,1.12-.64,1.36.76-1.11.64Zm-17-.2h0l-1.32-.76,1.12-.64,1.36.76-1.12.64Zm5.06,0h0l-1.31-.76,1.11-.64,1.36.77-1.11.64Zm4.56-.25h0l-1.32-.76,1.12-.64,1.36.76-1.12.65Zm4.36-.14h0l-1.32-.76,1.12-.64,1.36.77-1.11.64Zm4.84-.42h0l-1.31-.76,1.11-.65,1.36.77-1.11.64Zm-17-.21h0l-1.31-.76,1.11-.64,1.36.76-1.11.64Zm5.06,0h0l-1.32-.76,1.11-.64,1.36.76-1.11.64Zm4.56-.25h0L296.1,268l1.12-.64,1.36.76-1.11.64Zm4.36-.14h0l-1.31-.76,1.11-.64,1.36.76-1.11.64Zm4.84-.42h0l-1.31-.76,1.11-.64,1.36.77-1.11.64Zm-17-.21h0l-1.31-.76,1.11-.65,1.36.77-1.11.64Zm5.07,0h0l-1.32-.76,1.12-.64,1.36.76-1.12.64Zm16.68-.11h0l-1.32-.76,1.41-.81,1.36.77-1.4.81Zm-12.13-.14h0l-1.31-.76,1.11-.65,1.36.77-1.11.64Zm4.36-.14h0l-1.32-.76,1.11-.64,1.36.76-1.11.64Zm4.85-.41h0l-1.32-.76,1.12-.64,1.36.76-1.12.65Zm-17-.21s0,0,0,0l-1.32-.76,1.11-.64,1.36.77-1.11.64Zm5.06,0h0l-1.32-.76,1.12-.65,1.36.77-1.11.64Zm4.56-.25h0l-1.32-.76,1.11-.65,1.36.77-1.11.64Zm12.41,0h0l-1.31-.76,1.4-.81,1.36.77-1.4.81Zm-8.05-.11h0l-1.32-.76,1.12-.65,1.36.77-1.12.64Zm4.84-.42h0l-1.32-.76,1.12-.64,1.36.76-1.11.64Zm-11.94-.24h0l-1.31-.76,1.11-.64,1.36.77-1.11.64Zm4.56-.25h0l-1.32-.76,1.12-.64,1.36.77-1.12.64Zm4.36-.14h0l-1.32-.76,1.12-.64,1.36.77-1.11.64Zm-13.19,0h0l-1.31-.76,1.11-.64,1.36.77-1.11.64Zm21.53,0h0l-1.31-.76,1.4-.81,1.36.76-1.4.81Zm-3.5-.36h0l-1.31-.76,1.11-.65,1.36.77-1.11.64Zm-11.93-.24h0l-1.31-.76,1.11-.64,1.37.76-1.12.65Zm4.55-.25h0l-1.32-.76,1.12-.64,1.36.76-1.11.64Zm4.36-.14h0l-1.31-.76,1.11-.64,1.36.76-1.11.65Zm-13.19,0h0l-1.31-.76,1.11-.64,1.36.76-1.11.64Zm21.82-.2h0l-1.31-.76,1.78-1,1.36.76-1.78,1ZM314,264h0l-1.32-.76,3.51-2,1.36.76L314,264ZM302,263.77h0l-1.32-.76,1.12-.64,1.36.76-1.11.64Zm4.55-.25h0l-1.31-.76,1.11-.64,1.36.76-1.11.64Zm4.36-.14h0l-1.32-.76,1.11-.64,1.36.76-1.11.64Zm-13.18,0h0l-1.32-.76,1.12-.64,1.36.76-1.12.64Zm6.09-.63h0l-1.31-.76,1.11-.65,1.36.77-1.11.64Zm16.78-.17h0l-1.32-.76,1.12-.65,1.36.77-1.11.64Zm-12.22-.08h0l-1.32-.76,1.11-.65,1.36.77-1.11.64Zm4.36-.14h0l-1.32-.76,1-.59a.21.21,0,0,0,.11-.19.21.21,0,0,0-.12-.19l-1.72-1,1.3-.75,3.42,1.95-2.65,1.53Zm-13.19,0h0l-1.32-.76,1.12-.65,1.36.77-1.11.64Zm6.09-.63h0l-1.31-.75,1.11-.65,1.36.77-1.11.64Zm16.78-.17h0l-1.31-.76,1.11-.64,1.36.77-1.11.64Zm-12.22-.08h0l-1.32-.76L310,260l1.36.77-1.11.64Zm-8-.63h0l-1.32-.76,1.11-.65,1.36.77-1.11.64Zm5.3-.17h0l-1.32-.76,1.12-.64,1.36.76-1.12.65Zm16.78-.17h0l-1.31-.76L324,259l1.36.76-1.11.64Zm-3.89-.14h0l-1.31-.76,1.11-.64,1.36.77-1.11.64ZM304,259.74h0l-1.32-.76,1.12-.64,1.36.77-1.12.64Zm5.3-.17h0L308,258.8l2-1.14,1.36.76-2,1.14Zm17.16-.4h0l-1.31-.76,2.93-1.7,1.36.77-2.93,1.69Zm-12-.19h0l-1.32-.76,1.12-.65,1.36.77-1.11.64Zm-8.61-.29h0l-1.32-.76,1.12-.64L307,258l-1.11.65ZM324.4,258h0l-1.31-.76,1.11-.65,1.36.77-1.11.64Zm-8.15-.05h0l-1.31-.76,1.11-.64,1.36.77-1.11.64Zm-3.88-.14h0L311,257l1.12-.65,1.36.77-1.11.64Zm-4.73-.16h0l-1.31-.76,1.11-.64,1.36.76-1.11.64Zm22.47-.56h0l-1.32-.76,1.12-.64,1.36.76-1.12.65Zm-3.89-.14h0l-1.31-.75,1.11-.65,1.36.77-1.11.64Zm-8.15-.05h0l-1.31-.76,1.11-.64,1.36.76-1.11.65Zm4.27-.09h0L321,256l1.11-.64,1.36.76-1.11.64Zm-8.15-.05h0l-1.31-.75,1.11-.65,1.36.77-1.11.64Zm-4.32-.39s0,0,0,0l-1.32-.76,1.12-.64,1.36.77-1.11.64Zm22.06-.34h0l-3.38-1.95,1.12-.64,3.42,2L332,256Zm-3.88-.13h0l-1.32-.76,1.12-.64,1.36.76-1.12.65Zm-3.89-.14h0l-1.31-.75,1.11-.65,1.36.77-1.11.64Zm-8.15-.05h0l-1.31-.76,1.11-.64,1.36.77-1.11.64Zm4.27-.09h0l-1.32-.76,1.12-.64,1.36.76-1.11.64Zm-8.59-.3h0l-1.31-.76,1.11-.64,1.36.76-1.11.65Zm14.3-.61h0l-1.32-.76,1.12-.64,1.36.76-1.12.65Zm-3.89-.14h0l-1.32-.76,1.11-.65,1.36.77-1.11.64Zm-3.88-.14h0l-1.31-.76L318,253l1.36.76-1.11.64Zm-4.71-.17h0l-1.32-.76,1.11-.64,1.36.76-1.11.64Zm14.3-.6h0l-3.38-1.95,1.12-.64,3.42,2-1.11.64Zm-3.88-.14h0l-1.32-.76,1.12-.64,1.36.77-1.12.64Zm-3.89-.14h0l-1.32-.76,1.11-.65,1.36.77-1.11.64Zm-4.85-.7h0l-.57-.32,1.11-.65.62.33-1.11.64Zm6.68-.35h0l-1.32-.76,1.12-.64,1.36.77-1.12.64Zm-4.86-.7h0l-.57-.33,1.12-.64.61.33-1.11.64Zm6.68-.35h0l-1.32-.76,1.12-.64,1.36.76-1.11.65Zm-4.85-.7h0l-.57-.33,1.11-.64.61.33-1.11.64Zm1.82-1.05h0l-.57-.32,1.11-.64.61.33-1.1.64Z" style="fill:#fff;opacity:0.5"></path></g></g><g id="freepik--Device--inject-10"><path id="freepik--shadow--inject-10" d="M319.46,228.65l-4-2.34a1,1,0,0,0-.88,0l-50.89,29.38a.27.27,0,0,0,0,.51l4.09,2.38a1,1,0,0,0,.88,0l8.61-5a2.49,2.49,0,0,0,.38.25l6.59,3.81a6.38,6.38,0,0,0,5.85,0l12.73-7.35a2.42,2.42,0,0,0,0-4.46l-6.09-3.51,22.78-13.18A.27.27,0,0,0,319.46,228.65Z" style="fill:#37474f"></path><g id="freepik--Monitor--inject-10"><g id="freepik--monitor--inject-10"><path d="M302.3,245.78,295.7,242a6.71,6.71,0,0,0-5.09-.4l-3.92,1.51a22.65,22.65,0,0,0-4.86,2.76l-4,3.14a2,2,0,0,0-.85,1.54v.91a1.9,1.9,0,0,0,1.08,1.6l6.6,3.81a5.42,5.42,0,0,0,4.9,0l12.73-7.35a1.7,1.7,0,0,0,1-1.42v-.88A1.72,1.72,0,0,0,302.3,245.78Z" style="fill:#e6e6e6"></path><path d="M277,251.43a1.9,1.9,0,0,0,1.08,1.6l6.6,3.81a5,5,0,0,0,2.45.59v-.94L277,250.64Z" style="fill:#e0e0e0"></path><path d="M277,251.43a1.9,1.9,0,0,0,1.08,1.6l6.6,3.81a5,5,0,0,0,2.45.59v-.94L277,250.64Z" style="opacity:0.1"></path><path d="M290.61,241.57l-3.92,1.51a22.65,22.65,0,0,0-4.86,2.76l-4,3.14a1.79,1.79,0,0,0,.23,3.17l6.6,3.81a5.42,5.42,0,0,0,4.9,0l12.73-7.35c1.35-.78,1.35-2.05,0-2.83L295.7,242A6.71,6.71,0,0,0,290.61,241.57Z" style="fill:#f0f0f0"></path><path d="M295.7,242a6.71,6.71,0,0,0-5.09-.4l-3.92,1.51a22.65,22.65,0,0,0-4.86,2.76l-4,3.14a2,2,0,0,0-.85,1.54v.91a1.9,1.9,0,0,0,1.08,1.6l3.67,2.12v-.88l17.64-10.18Z" style="opacity:0.1"></path><path d="M289.52,246c0-1.94.61-8.06,1.89-9.5l-4.09-.45c-2,2.12-4.41,7.19-5.86,10.12,0,0,1.19.48,2.67,1.1a6,6,0,0,0,4.6,0,1.44,1.44,0,0,0,.79-1.27Z" style="fill:#e0e0e0"></path><path d="M289.52,246c0-1.94.61-8.06,1.89-9.5l-4.09-.45c-2,2.12-4.41,7.19-5.86,10.12,0,0,1.19.48,2.67,1.1a6,6,0,0,0,4.6,0,1.44,1.44,0,0,0,.79-1.27Z" style="opacity:0.1"></path><path d="M288.76,236.61a3.17,3.17,0,0,0,2.46,0c.57-.33.57-1,0-1.42l-1-.83a12.08,12.08,0,0,0-2.87,1.66Z" style="fill:#e0e0e0"></path><path d="M266.43,250.05a2.32,2.32,0,0,0,2.1,0L318,221.47a2.41,2.41,0,0,0,1.09-1.88V173.91a2,2,0,0,0-3.13-1.8l-49.43,28.54a2.4,2.4,0,0,0-1.08,1.88v45.68A2.32,2.32,0,0,0,266.43,250.05Z" style="fill:#455a64"></path><path d="M268.53,250,318,221.47a2.41,2.41,0,0,0,1.09-1.88V173.91c0-.69-.49-1-1.09-.63l-49.43,28.55a2.39,2.39,0,0,0-1.08,1.88v45.67C267.44,250.07,267.93,250.36,268.53,250Z" style="fill:#37474f"></path><path d="M267.45,245.69v3.69c0,.69.49,1,1.09.63L318,221.47a2.41,2.41,0,0,0,1.09-1.88v-3.7Z" style="fill:#ebebeb"></path><path d="M268.88,242.25V204.19a1.5,1.5,0,0,1,.67-1.16l47.39-27.36c.37-.22.67,0,.67.38v38.07a1.47,1.47,0,0,1-.67,1.15l-47.39,27.37C269.18,242.85,268.88,242.68,268.88,242.25Z" style="fill:#263238"></path><path d="M265.73,201.46l2,1.17a2.44,2.44,0,0,0-.32,1.08v45.67c0,.63.43,1,1.09.63a2.29,2.29,0,0,1-2.1,0,2.07,2.07,0,0,1-1-1.71V202.53A2.2,2.2,0,0,1,265.73,201.46Z" style="fill:#263238"></path><path d="M292.65,233.2l2.45-1.41c.22-.13.4,0,.4.2a.84.84,0,0,1-.4.66l-2.45,1.41c-.22.13-.4,0-.4-.2A.86.86,0,0,1,292.65,233.2Z" style="fill:#673AB7"></path></g><path d="M313.55,180.58l-39.85,23a1.3,1.3,0,0,0-.59,1v32.78c0,.38.26.53.59.34l39.85-23a1.3,1.3,0,0,0,.59-1V180.92C314.14,180.54,313.88,180.39,313.55,180.58Z" style="fill:#455a64"></path><path d="M310.26,187.61l-32.77,18.93a2.75,2.75,0,0,0-1.26,2.17V233c0,.8.56,1.12,1.26.72l32.77-18.94a2.78,2.78,0,0,0,1.26-2.17V188.34C311.52,187.54,311,187.21,310.26,187.61Z" style="fill:#fafafa"></path><path d="M278,211.33a.29.29,0,0,1-.25-.14.29.29,0,0,1,.11-.4L289.63,204a.29.29,0,0,1,.39.1.29.29,0,0,1-.1.4l-11.77,6.79A.28.28,0,0,1,278,211.33Z" style="fill:#e0e0e0"></path><path d="M278,214.05a.29.29,0,0,1-.25-.14.29.29,0,0,1,.11-.4l11.77-6.79a.28.28,0,0,1,.39.1.29.29,0,0,1-.1.4L278.15,214A.28.28,0,0,1,278,214.05Z" style="fill:#e0e0e0"></path><path d="M278,216.77a.3.3,0,0,1-.25-.14.29.29,0,0,1,.11-.4l11.77-6.8a.28.28,0,0,1,.39.11.28.28,0,0,1-.1.39l-11.77,6.8A.28.28,0,0,1,278,216.77Z" style="fill:#e0e0e0"></path><path d="M278,219.49a.27.27,0,0,1-.25-.15.29.29,0,0,1,.11-.39l11.77-6.8a.29.29,0,0,1,.29.5l-11.77,6.8A.28.28,0,0,1,278,219.49Z" style="fill:#e0e0e0"></path><polygon points="292.13 202.89 308.61 193.37 308.61 204.25 292.13 213.76 292.13 202.89" style="fill:#673AB7"></polygon><polygon points="292.13 202.89 308.61 193.37 308.61 204.25 292.13 213.76 292.13 202.89" style="fill:#fff;opacity:0.5"></polygon><polygon points="293.31 211.73 307.46 203.58 304.34 201.4 301.24 205.08 297.83 201.94 293.31 211.73" style="fill:#fff"></polygon><path d="M302,199.38c.38-.21.68,0,.68.4A1.47,1.47,0,0,1,302,201c-.37.22-.68.05-.68-.39A1.53,1.53,0,0,1,302,199.38Z" style="fill:#fff"></path><polygon points="278 224.64 308.61 206.97 308.61 209.68 278 227.35 278 224.64" style="fill:#673AB7"></polygon><path d="M278,222.21a.29.29,0,0,1-.25-.15.28.28,0,0,1,.11-.39l11.77-6.8a.29.29,0,0,1,.4.11.29.29,0,0,1-.11.39l-11.77,6.8A.42.42,0,0,1,278,222.21Z" style="fill:#e0e0e0"></path><path d="M278,230.36a.29.29,0,0,1-.25-.14.29.29,0,0,1,.11-.4l30.64-17.64a.29.29,0,0,1,.4.1.29.29,0,0,1-.11.4l-30.64,17.64A.28.28,0,0,1,278,230.36Z" style="fill:#e0e0e0"></path><path d="M273.11,204.61a1.29,1.29,0,0,1,.59-1l39.85-23c.33-.19.59,0,.59.34v2.52l-41,23.69Z" style="fill:#37474f"></path></g></g><g id="freepik--Mouse--inject-10"><path d="M352.4,249.81l-6,3.45a6.57,6.57,0,0,1-6.58-.35L330,245.73c-1.76-1.28-1.66-3.2.22-4.29l3-1.73a8.12,8.12,0,0,1,6.91-.21l12.15,6.59C354.23,247.06,354.28,248.73,352.4,249.81Z" style="opacity:0.2"></path><path d="M329.85,242.6l6.81,5.33,5,3.93a4.57,4.57,0,0,0,1.6.38,4.42,4.42,0,0,0,2.39-.5l5.33-3.08h0l0,0a3.76,3.76,0,0,0,1.08-5.4c-.05-.07-.1-.15-.16-.22a7.11,7.11,0,0,0-4.29-2.72l-2.7-.54c-4.38-.89-8-1.32-8.39-1l-6.69,3.88Z" style="fill:#f0f0f0"></path><path d="M333.66,245.58l-.39-.3,6-3.46L334,240.19l.54-.31,5.25,1.63,3.58-2.07.68.13Z" style="fill:#673AB7"></path><path d="M341.09,251.53l0,0h0l-4.78-3.45-6.45-4.66v-.73a.09.09,0,0,1,0-.06h0c.48-.17,3.28.67,6.66,2l2.24.89a6.93,6.93,0,0,1,1.91,1.13,7.12,7.12,0,0,1,2.58,5.49v.12a4.57,4.57,0,0,1-1.6-.38Z" style="fill:#e0e0e0"></path><path d="M341.09,251.53l0,0h0l-4.78-3.45-6.45-4.66v-.73a.09.09,0,0,1,0-.06h0c.48-.17,3.28.67,6.66,2l2.24.89a6.93,6.93,0,0,1,1.91,1.13,7.12,7.12,0,0,1,2.58,5.49v.12a4.57,4.57,0,0,1-1.6-.38Z" style="opacity:0.1"></path></g></g><g id="freepik--Coffee--inject-10"><path id="freepik--shadow--inject-10" d="M236.59,261.76c-3.18,1.95-3.18,5.11,0,7.05a12,12,0,0,0,11.5,0c3.18-1.94,3.18-5.1,0-7.05A12,12,0,0,0,236.59,261.76Z" style="fill:#37474f"></path><g id="freepik--coffee--inject-10"><path d="M247.27,250.23a15.14,15.14,0,0,0-10.12.29c-2.72,1.24-2.68,3.12.1,4.2a15.17,15.17,0,0,0,10.12-.29C250.19,253.19,250.14,251.31,247.27,250.23Z" style="fill:#673AB7"></path><g style="opacity:0.30000000000000004"><path d="M247.27,250.23a15.14,15.14,0,0,0-10.12.29c-2.72,1.24-2.68,3.12.1,4.2a15.17,15.17,0,0,0,10.12-.29C250.19,253.19,250.14,251.31,247.27,250.23Z"></path></g><path d="M249.45,246.35l-14.58.43,1.55,19h0c.09.69.69,1.35,1.81,1.85a11.73,11.73,0,0,0,8.75-.25c1.14-.56,1.73-1.26,1.78-2h0Z" style="fill:#fafafa"></path><path d="M234.87,246.78l.31,3.86a6.22,6.22,0,0,0,1.24.69A16.06,16.06,0,0,0,248,251l.38-.21a6.83,6.83,0,0,0,.91-.59l.13-3.85Z" style="fill:#ebebeb"></path><path d="M250.39,246.89l-.07-2.91-1.7,0a7.77,7.77,0,0,0-.76-.35,16,16,0,0,0-11.61.33,7.81,7.81,0,0,0-.71.4l-1.65,0,.07,2.91h0c0,.94.83,1.87,2.42,2.55a16.14,16.14,0,0,0,11.62-.33C249.61,248.81,250.41,247.83,250.39,246.89Z" style="fill:#673AB7"></path><g style="opacity:0.2"><path d="M250.39,246.89l-.07-2.91-1.7,0a7.77,7.77,0,0,0-.76-.35,16,16,0,0,0-11.61.33,7.81,7.81,0,0,0-.71.4l-1.65,0,.07,2.91h0c0,.94.83,1.87,2.42,2.55a16.14,16.14,0,0,0,11.62-.33C249.61,248.81,250.41,247.83,250.39,246.89Z"></path></g><path d="M247.81,241.43a16.06,16.06,0,0,0-11.62.33c-3.12,1.54-3.06,3.88.13,5.24a16.11,16.11,0,0,0,11.61-.33C251.16,245.13,251.11,242.78,247.81,241.43Z" style="fill:#673AB7"></path><path d="M248.79,243.32h0l-.58-2.38-4.18.11a15.92,15.92,0,0,0-4.14.12l-4.05.12-.48,2.41h0c-.24.88.41,1.78,1.94,2.4a13.81,13.81,0,0,0,9.58-.27C248.46,245.12,249.08,244.18,248.79,243.32Z" style="fill:#673AB7"></path><path d="M248.79,243.32h0l-.58-2.38-4.18.11a15.92,15.92,0,0,0-4.14.12l-4.05.12-.48,2.41h0c-.24.88.41,1.78,1.94,2.4a13.81,13.81,0,0,0,9.58-.27C248.46,245.12,249.08,244.18,248.79,243.32Z" style="opacity:0.2"></path><path d="M246.36,239.45a13.31,13.31,0,0,0-8.79.26c-2.37,1.06-2.33,2.67.08,3.6a13.37,13.37,0,0,0,8.8-.25C248.89,242,248.86,240.38,246.36,239.45Z" style="fill:#673AB7"></path><path d="M247.4,241.23s-.06.17-.27.35a4,4,0,0,1-1,.6,11.85,11.85,0,0,1-4.13.8,10.91,10.91,0,0,1-4.08-.57,3,3,0,0,1-1-.54c-.21-.17-.27-.3-.27-.34s.21-.49,1.22-.95a11.15,11.15,0,0,1,4.05-.8,11.61,11.61,0,0,1,4.15.57C247.13,240.74,247.39,241.14,247.4,241.23Z" style="fill:#673AB7"></path><g style="opacity:0.5"><path d="M247.4,241.23s-.06.17-.27.35a4,4,0,0,1-1,.6,11.85,11.85,0,0,1-4.13.8,10.91,10.91,0,0,1-4.08-.57,3,3,0,0,1-1-.54c-.21-.17-.27-.3-.27-.34s.21-.49,1.22-.95a11.15,11.15,0,0,1,4.05-.8,11.61,11.61,0,0,1,4.15.57C247.13,240.74,247.39,241.14,247.4,241.23Z"></path></g><path d="M247.13,241.58a4,4,0,0,1-1,.6,11.85,11.85,0,0,1-4.13.8,10.91,10.91,0,0,1-4.08-.57,3,3,0,0,1-1-.54,3.4,3.4,0,0,1,1-.6,11,11,0,0,1,4.06-.8,11.42,11.42,0,0,1,4.15.57A3.64,3.64,0,0,1,247.13,241.58Z" style="fill:#673AB7"></path><g style="opacity:0.2"><path d="M247.13,241.58a4,4,0,0,1-1,.6,11.85,11.85,0,0,1-4.13.8,10.91,10.91,0,0,1-4.08-.57,3,3,0,0,1-1-.54,3.4,3.4,0,0,1,1-.6,11,11,0,0,1,4.06-.8,11.42,11.42,0,0,1,4.15.57A3.64,3.64,0,0,1,247.13,241.58Z"></path></g><g style="opacity:0.5"><path d="M244.66,241.71a1.13,1.13,0,0,1,1-.23c.19.1.05.38-.31.62a1.13,1.13,0,0,1-1,.24C244.17,242.23,244.31,242,244.66,241.71Z"></path></g><path d="M235.72,259.65c0,.72.68,1.41,2,1.92a14.28,14.28,0,0,0,9.54-.27c1.33-.58,2-1.32,2-2l.26-7c0,.76-.68,1.54-2.09,2.16a15.17,15.17,0,0,1-10.12.29c-1.39-.54-2.09-1.28-2.11-2Z" style="fill:#673AB7"></path><path d="M240.18,259.94a9.92,9.92,0,0,1-.6-1.17,3.24,3.24,0,0,0-1.69-1.56.19.19,0,0,0-.25.11,2.67,2.67,0,0,0,.67,2.74,2.11,2.11,0,0,0,2.49.62s0-.12,0-.14A2,2,0,0,1,240.18,259.94Z" style="fill:#37474f"></path><path d="M238.28,257a3.49,3.49,0,0,1,1.06.68,3.42,3.42,0,0,1,.78,1.12,3.32,3.32,0,0,0,1,1.36.19.19,0,0,0,.28-.05,2.58,2.58,0,0,0-.57-2.93,2.09,2.09,0,0,0-2.56-.58A.23.23,0,0,0,238.28,257Z" style="fill:#37474f"></path></g></g></g><g id="freepik--Character--inject-10"><g id="freepik--bottom--inject-10"><g id="freepik--Legs--inject-10"><path d="M330.58,340.26c-.89,2.38-5,1.95-9.49,2.09-3.59.11-7.75-.55-10,.63s-2.74,4,1,7.13c4.72,3.94,11,3.5,14.46,3.84s5.56,1.57,8.74,1.47c4.11-.12,6.52-1.53,7.06-2.71s.57-10.1-1.14-9.67a54.82,54.82,0,0,0-6.51-.36C330.5,342.53,330.58,340.26,330.58,340.26Z" style="fill:#263238"></path><path d="M341.12,344c0-.14,1-8.91,1-8.91s-.69-.41-5.59-.57c-2.4-.08-5.21-2.09-5.47-.19s-.45,5.92-.45,5.92c-.89,2.38-5,1.95-9.49,2.09-.74,0-1.52,0-2.29,0h-.05c-2.38.21-4.55,2-1.8,3.64s6.92,1.83,10.76,2C332.32,348.09,341,348.59,341.12,344Z" style="fill:#ffbda7"></path><path d="M328.51,300.35c-.37,8.88,1.71,38.6,1.71,38.6s4.15,4.2,11.6,1.1l4.88-37.75Z" style="fill:#37474f"></path><path d="M312.53,353.31c-.8,2.41-7.22,3.45-11.66,3.74-3.59.23-7.77-.29-10,1s-2.6,4.07,1.28,7.09c4.85,3.78,13.32,1.8,16.83,2s5.52,1,8.34.93c4.12-.05,5.53-1.53,6-2.73s1-9.95-.72-9.46c0,0,.16-.29-5.88-.29C312.53,355.58,312.53,353.31,312.53,353.31Z" style="fill:#263238"></path><path d="M322.62,356.4c0-.14,3.25-13,3.25-13a9.83,9.83,0,0,1-7.61,4c-2.41,0-5.74-3.27-5.94-1.36s-.4,4.79-.63,6.55c-.26,2-4.9,3.69-9.75,4.24-.74.08-2.59.3-3.37.31h-.05c-2.69.24-5.39,2.37-2.58,3.93s10.14,0,14,0C314.54,361.08,322.62,361,322.62,356.4Z" style="fill:#ffbda7"></path><path d="M314.8,306.88c-1,9.2-2.88,36.46-3.11,43.75a12.18,12.18,0,0,0,12.4,1.94s8.35-28.55,7.75-38.38C331.56,309.51,314.8,306.88,314.8,306.88Z" style="fill:#455a64"></path></g><g id="freepik--Chair--inject-10"><path d="M345.92,385.33a4.16,4.16,0,0,0,.09.9,2.1,2.1,0,0,0,.81,1.25l0,0a2.36,2.36,0,0,0,2.49-.19,7.55,7.55,0,0,0,3.43-5.94,2.44,2.44,0,0,0-1-2.17h0l-.17-.1h0a2.18,2.18,0,0,0-1.46-.06,3.79,3.79,0,0,0-.84.37A7.57,7.57,0,0,0,345.92,385.33Z" style="fill:#455a64"></path><path d="M346.85,378a3.11,3.11,0,0,1,1.53-.46,1.76,1.76,0,0,1,1,.27l.09.05,2.21,1.27a2.18,2.18,0,0,0-1.46-.06,3.79,3.79,0,0,0-.84.37,7.57,7.57,0,0,0-3.42,5.93,4.16,4.16,0,0,0,.09.9,2.1,2.1,0,0,0,.81,1.25l-2.27-1.31,0,0-.19-.12-.06,0a2.52,2.52,0,0,1-.84-2.1A7.58,7.58,0,0,1,346.85,378Z" style="fill:#263238"></path><path d="M383,365.39a4.11,4.11,0,0,0,.1.89,2,2,0,0,0,.81,1.26l0,0a2.38,2.38,0,0,0,2.49-.19,7.6,7.6,0,0,0,3.43-5.94,2.44,2.44,0,0,0-1-2.18h0l-.16-.09h0a2.12,2.12,0,0,0-1.46-.06,3.79,3.79,0,0,0-.84.37A7.56,7.56,0,0,0,383,365.39Z" style="fill:#455a64"></path><path d="M383.94,358a3.13,3.13,0,0,1,1.52-.47,1.78,1.78,0,0,1,1,.28l.08,0,2.22,1.28a2.12,2.12,0,0,0-1.46-.06,3.79,3.79,0,0,0-.84.37,7.56,7.56,0,0,0-3.43,5.93,4.11,4.11,0,0,0,.1.89,2,2,0,0,0,.81,1.26l-2.27-1.31,0,0-.19-.12-.06,0a2.52,2.52,0,0,1-.84-2.1A7.55,7.55,0,0,1,383.94,358Z" style="fill:#263238"></path><path d="M376.38,393.11a4.16,4.16,0,0,1-.09.9,2.13,2.13,0,0,1-.81,1.26l0,0a2.38,2.38,0,0,1-2.49-.2,7.54,7.54,0,0,1-3.43-5.94,2.45,2.45,0,0,1,1-2.17h0l.16-.09h0a2.06,2.06,0,0,1,1.46-.06,3.79,3.79,0,0,1,.84.37A7.55,7.55,0,0,1,376.38,393.11Z" style="fill:#455a64"></path><path d="M375.45,385.75a3.13,3.13,0,0,0-1.53-.47,1.85,1.85,0,0,0-1,.27l-.09.05-2.21,1.28a2.06,2.06,0,0,1,1.46-.06,3.79,3.79,0,0,1,.84.37,7.55,7.55,0,0,1,3.42,5.92,4.16,4.16,0,0,1-.09.9,2.13,2.13,0,0,1-.81,1.26l2.27-1.32h0l.19-.12.06,0a2.53,2.53,0,0,0,.84-2.1A7.56,7.56,0,0,0,375.45,385.75Z" style="fill:#263238"></path><path d="M400.46,381.32a4.13,4.13,0,0,1-.1.9,2,2,0,0,1-.81,1.26l0,0a2.38,2.38,0,0,1-2.49-.2,7.57,7.57,0,0,1-3.43-5.94,2.43,2.43,0,0,1,1-2.17h0l.16-.1h0a2.12,2.12,0,0,1,1.46-.05,3.73,3.73,0,0,1,.84.36A7.58,7.58,0,0,1,400.46,381.32Z" style="fill:#455a64"></path><path d="M399.52,374a3.22,3.22,0,0,0-1.52-.46,1.86,1.86,0,0,0-1,.27l-.09.05-2.21,1.27a2.12,2.12,0,0,1,1.46-.05,3.73,3.73,0,0,1,.84.36,7.58,7.58,0,0,1,3.43,5.93,4.13,4.13,0,0,1-.1.9,2,2,0,0,1-.81,1.26l2.27-1.32,0,0,.19-.11.06,0a2.54,2.54,0,0,0,.84-2.11A7.59,7.59,0,0,0,399.52,374Z" style="fill:#263238"></path><path d="M353.93,366.86a4.13,4.13,0,0,1-.1.9A2.1,2.1,0,0,1,353,369l0,0a2.36,2.36,0,0,1-2.49-.19,7.55,7.55,0,0,1-3.43-5.94,2.44,2.44,0,0,1,1-2.17h0l.17-.1h0a2.18,2.18,0,0,1,1.46-.06,4.32,4.32,0,0,1,.84.37A7.58,7.58,0,0,1,353.93,366.86Z" style="fill:#455a64"></path><path d="M353,359.49a3.11,3.11,0,0,0-1.53-.46,1.85,1.85,0,0,0-1,.27l-.09.05-2.21,1.27a2.18,2.18,0,0,1,1.46-.06,4.32,4.32,0,0,1,.84.37,7.58,7.58,0,0,1,3.43,5.93,4.13,4.13,0,0,1-.1.9A2.1,2.1,0,0,1,353,369l2.27-1.31,0,0,.19-.11.06,0a2.54,2.54,0,0,0,.84-2.11A7.58,7.58,0,0,0,353,359.49Z" style="fill:#263238"></path><polygon points="374.39 359.61 386.63 356.11 386.63 358.72 374.39 365.78 374.39 359.61" style="fill:#ebebeb"></polygon><polygon points="374.39 359.61 373.18 358.88 385.46 355.52 386.63 356.11 374.39 359.61" style="fill:#f5f5f5"></polygon><polygon points="369.09 367.42 351.74 360.91 351.74 358.27 369.09 359.82 369.09 367.42" style="fill:#ebebeb"></polygon><polygon points="351.74 358.27 353.02 357.93 370.13 359.04 369.09 359.82 351.74 358.27" style="fill:#f5f5f5"></polygon><path d="M368.63,366.58c0,2,6,2,6,0V343.83h-6Z" style="fill:#fafafa"></path><path d="M373.15,362.11l3.32,21.55H374.2l-3.1-21.55A3.56,3.56,0,0,0,373.15,362.11Z" style="fill:#f5f5f5"></path><polygon points="371.1 362.11 371.1 368.03 374.2 387.31 374.2 383.66 371.1 362.11" style="fill:#ebebeb"></polygon><rect x="374.2" y="383.66" width="2.27" height="3.65" style="fill:#e0e0e0"></rect><polygon points="370.07 367.86 347.69 379.59 347.69 375.97 370.07 362.13 370.07 367.86" style="fill:#ebebeb"></polygon><path d="M370.07,362.13a2.48,2.48,0,0,1-1.44-.65L346.29,375l1.4.94Z" style="fill:#f5f5f5"></path><polygon points="347.69 379.59 347.69 375.97 346.29 375.03 346.29 378.53 347.69 379.59" style="fill:#e0e0e0"></polygon><polygon points="398.28 375.44 374.37 367.26 374.37 361.89 398.28 371.83 398.28 375.44" style="fill:#ebebeb"></polygon><path d="M374.37,361.89c.2-.05.28-.4.3-.93L399,371.54l-.7.29Z" style="fill:#f5f5f5"></path><polygon points="398.98 371.54 398.98 375.03 398.28 375.44 398.28 371.83 398.98 371.54" style="fill:#e0e0e0"></polygon><rect x="374.2" y="383.66" width="2.27" height="3.65" style="opacity:0.1"></rect><polygon points="347.69 379.59 347.69 375.97 346.29 375.03 346.29 378.53 347.69 379.59" style="opacity:0.1"></polygon><polygon points="398.98 371.54 398.98 375.03 398.28 375.44 398.28 371.83 398.98 371.54" style="opacity:0.1"></polygon><path d="M375.88,328.21h-8.46v24.64c0,2.43,8.46,2.43,8.46,0Z" style="fill:#f0f0f0"></path><path d="M410.18,324.93v2.28l-37.13,21.44a4.76,4.76,0,0,1-4.76,0l-37.13-21.44v-2.28Z" style="fill:#37474f"></path><rect x="384.17" y="290.78" width="3.95" height="19.62" transform="translate(772.29 601.18) rotate(180)" style="fill:#37474f"></rect><path d="M386.18,286.36l20.7,12-7.9,4.56-23.71-13.69,4.9-2.83A6,6,0,0,1,386.18,286.36Z" style="fill:#673AB7"></path><path d="M386.18,286.36l20.7,12-7.9,4.56-23.71-13.69,4.9-2.83A6,6,0,0,1,386.18,286.36Z" style="fill:#fff;opacity:0.2"></path><polygon points="375.27 291.32 375.27 289.19 398.98 302.88 398.98 305 375.27 291.32" style="fill:#673AB7"></polygon><polygon points="375.27 291.32 375.27 289.19 398.98 302.88 398.98 305 375.27 291.32" style="opacity:0.30000000000000004"></polygon><polygon points="406.88 298.32 406.88 300.44 398.98 305 398.98 302.88 406.88 298.32" style="fill:#673AB7"></polygon><polygon points="406.88 298.32 406.88 300.44 398.98 305 398.98 302.88 406.88 298.32" style="opacity:0.15"></polygon><path d="M331.16,324.93l37.09,21.42a4.82,4.82,0,0,0,4.82,0l37.11-21.42a7.9,7.9,0,0,0-3.95-6.84l-3.33-1.92-.63-.37-27.15-15.66a8.84,8.84,0,0,0-8.92,0l-31.09,17.95-.08.05-.07.06A7.85,7.85,0,0,0,331.16,324.93Z" style="fill:#673AB7"></path><path d="M410.18,324.93a7.9,7.9,0,0,0-3.95-6.84l-3.33-1.92c4.66,2.75,6.58,4.59,3.31,6.47-3.94,2.29-25.63,14.81-33.06,19.09a4.89,4.89,0,0,1-2.48.67V347a5,5,0,0,0,2.48-.66Z" style="opacity:0.15"></path><path d="M368.17,341.73c-6.24-3.61-22.53-13-29.12-16.8-6.89-3.95-4.74-6.23-4.09-6.73a7.85,7.85,0,0,0-3.8,6.73l37,21.37a5,5,0,0,0,2.5.67V342.4A5,5,0,0,1,368.17,341.73Z" style="opacity:0.30000000000000004"></path></g><g id="freepik--bottom--inject-10"><path d="M399.77,302s-36.84-11.12-43.24-12.87-18.69-4.71-22.28-3.1-5.41,3.47-5.74,8.65c-.07,1,0,5.71,0,5.71s17.8,5.51,32.39,5.51S399.77,302,399.77,302Z" style="fill:#37474f"></path><path d="M402.38,298.29c2.32,7.89,3.34,17.82-2,23.71a40.13,40.13,0,0,1-29.16,12.39c-6.31,0-13.76-2.77-19.83-5.75-11.88-5.84-25.16-14.3-25.16-14.3s-10.53-1.67-10.6-5.37c0-.9-1-1.12-.85-2.09,1.52-8.08,6.6-12,13.68-11.46,11.78,1,38.13,8.37,38.13,8.37Z" style="fill:#455a64"></path><path d="M325.05,312.22a12.34,12.34,0,0,0,6.43,8.21c.12-.94.22-1.84.28-2.69A43.44,43.44,0,0,1,325.05,312.22Z" style="fill:#37474f"></path></g><polygon points="345.31 316.07 349.26 316.07 349.26 335.69 345.4 334.49 345.31 316.07" style="fill:#37474f"></polygon><path d="M347.32,311.65l20.7,12-7.9,4.56-23.71-13.68,4.91-2.83A6,6,0,0,1,347.32,311.65Z" style="fill:#673AB7"></path><path d="M347.32,311.65l20.7,12-7.9,4.56-23.71-13.68,4.91-2.83A6,6,0,0,1,347.32,311.65Z" style="fill:#fff;opacity:0.2"></path><polygon points="336.42 316.61 336.42 314.49 360.12 328.17 360.12 330.29 336.42 316.61" style="fill:#673AB7"></polygon><polygon points="336.42 316.61 336.42 314.49 360.12 328.17 360.12 330.29 336.42 316.61" style="opacity:0.30000000000000004"></polygon><polygon points="368.02 323.61 368.02 325.73 360.12 330.29 360.12 328.17 368.02 323.61" style="fill:#673AB7"></polygon><polygon points="368.02 323.61 368.02 325.73 360.12 330.29 360.12 328.17 368.02 323.61" style="opacity:0.15"></polygon></g><g id="freepik--top--inject-10"><path d="M333.53,237.49c.83.23,1.65.47,2.47.74a6.43,6.43,0,0,0,2,.46,2.45,2.45,0,0,0,.73-.22,4.61,4.61,0,0,1,4,.31.83.83,0,0,0,.47.18,1,1,0,0,0,.45-.18,2,2,0,0,1,1.47-.17c.26.08.51.21.77.29s.62.13.93.19a8.81,8.81,0,0,1,3.67,2.11,8.43,8.43,0,0,1,1.5,1.11,16.13,16.13,0,0,1,1.17,1.67c1.58,2.36,3.05,5,5.23,6.82,1.3,1.11,2.51,2.12,3.71,3.12l-10.4,6.8a56.36,56.36,0,0,0-4-4.13c-2.06-1.68-4.33-2.06-6.81-2.81a35.35,35.35,0,0,1-5-2.07c-.57-.27-1.2-.61-1.37-1.22a1.55,1.55,0,0,1,1.27-1.74,13.13,13.13,0,0,1,2.73,0c.68,0,2.39.65,2.88,0,.26-.31.07-.79-.13-1.14a16.52,16.52,0,0,0-3.31-4.3c-1.33-1.15-3.14-1.7-4.36-3a3.24,3.24,0,0,1-1-2.59.69.69,0,0,1,.12-.32c.16-.17.44-.12.66-.06Z" style="fill:#ffbda7"></path><g id="freepik--head--inject-10"><path d="M384.8,233.84a4.46,4.46,0,0,1-1.27.1s-.84,1.34-1,1.47a5,5,0,0,1-1.63,1,8.57,8.57,0,0,1-3.75.38c-2.83-.3-5.38-3.37-5.6-5.89a8.66,8.66,0,0,1,.48-3.28,12.62,12.62,0,0,1,2.73-5.21,7.94,7.94,0,0,1,9.2-1.71,5,5,0,0,1,2.43,2.56,2.66,2.66,0,0,1-.73,3,4.6,4.6,0,0,1,2,4.86A3.94,3.94,0,0,1,384.8,233.84Z" style="fill:#263238"></path><path d="M354.51,215.58a11.69,11.69,0,0,0,2.76-2.89l3.31-3.89c2.38-2.81,4.93-5.73,8.41-6.93a16.47,16.47,0,0,0-11.32-2.27,15.22,15.22,0,0,0-7.12,3.13,10,10,0,0,0-3.57,6.65,8.81,8.81,0,0,0,1.56,5.94,4.41,4.41,0,0,0,2,1.5C351.9,217.21,353.42,216.17,354.51,215.58Z" style="fill:#263238"></path><path d="M375.52,239.6c-.88.22-1.74.17-2.08-1.7-.43-2.28-.83-4.33-.83-4.33,2.93-3.41,8.64-7.58,9.77-14.42S377.3,202.47,367,201.41c-8-.82-13.35,2.11-16.49,8.59-1.17,2.43-.57,5.44-1.2,7.51-.53,1.77-2.47,7.43-1.18,13,.58,2.52,1.88,4.94,5.36,5.79a28.75,28.75,0,0,0,5.35.73l.54,4.08c.26,1.91.35,2.43-.62,2.81C359.89,248,378.14,244,375.52,239.6Z" style="fill:#ffbda7"></path><path d="M359.8,218.75a1.28,1.28,0,1,0,1.7-.72A1.29,1.29,0,0,0,359.8,218.75Z" style="fill:#263238"></path><path d="M361.44,215.4l2.4,2a1.64,1.64,0,0,0-.21-2.26A1.52,1.52,0,0,0,361.44,215.4Z" style="fill:#263238"></path><path d="M350.15,214.94l3-.89a1.52,1.52,0,0,0-1.91-1.1A1.66,1.66,0,0,0,350.15,214.94Z" style="fill:#263238"></path><path d="M350.47,217.64a1.19,1.19,0,0,0,1.06,1.32,1.22,1.22,0,1,0-1.06-1.32Z" style="fill:#263238"></path><path d="M350.89,222.45l4.15,2.26,2.51-7.89A34.13,34.13,0,0,0,350.89,222.45Z" style="fill:#f0997a"></path><path d="M370,229.78a7.45,7.45,0,0,1-2.85,4.24,11.34,11.34,0,0,1-5.44,1.61,19.56,19.56,0,0,1-2.76,0c-1.2-.09-2.39-.26-3.57-.46a14.64,14.64,0,0,0-4-.34.35.35,0,0,0-.18.06c-.11.1,0,.27,0,.39s.17.22.25.33a7.62,7.62,0,0,0,1.94.76,28.75,28.75,0,0,0,5.35.73l.15,1.11a27.59,27.59,0,0,0,3,0,10.33,10.33,0,0,0,3.74-1.13A8,8,0,0,0,370,229.78Z" style="fill:#f0997a"></path><path d="M349.25,212.09a10.42,10.42,0,0,1,1.37,0,24.54,24.54,0,0,0,5.35-.27,10.68,10.68,0,0,0,4.87-2.12,3.47,3.47,0,0,1-2.45,2.44,6.47,6.47,0,0,0,3.8.1,8.61,8.61,0,0,0,5-2.74,7,7,0,0,1,.77,4.17,17.76,17.76,0,0,0,0,4.31,14.24,14.24,0,0,0,.65,2c.2.56-.08,1.05,0,1.64a1,1,0,0,0,1.72.54c.9-.66,1.38-1.59,2.39-2.11,1.43-.73,3.56-.6,4.54.81,1.22,1.78,1.25,4.35-1,6.72-2,2.1-4.81,1.2-5.36-.06.22,1.91,0,3.23.84,5a5.61,5.61,0,0,0,1.95,2.62c.33-2.13,3.61-5,5.43-7.29a16.17,16.17,0,0,0,3.71-9.14,17,17,0,0,0-1.77-7.94,18.27,18.27,0,0,0-4.81-6,16.27,16.27,0,0,0-3.53-2.19,21.78,21.78,0,0,0-5.26-1.42,20.25,20.25,0,0,0-3.46-.32,16.73,16.73,0,0,0-7.33,1.37A18.08,18.08,0,0,0,351,207a10.45,10.45,0,0,0-2.35,5.17A3.7,3.7,0,0,1,349.25,212.09Z" style="fill:#263238"></path><path d="M355.46,227a1.79,1.79,0,0,1,1.22,1.59,1.3,1.3,0,0,1-.7,1.25,1.11,1.11,0,0,1-1.36-.34,1.54,1.54,0,0,1,0-1.42c.07-.17.16-.38.06-.53a.69.69,0,0,0-.42-.34A1.66,1.66,0,0,1,355.46,227Z" style="fill:#b16668"></path><path d="M354.77,229.6a1.1,1.1,0,0,0,1.21.2,1.3,1.3,0,0,0,.7-1.25,1.63,1.63,0,0,0-.17-.62A2.75,2.75,0,0,0,354.77,229.6Z" style="fill:#f28f8f"></path></g><path d="M379.28,238.39c2.14-.65,7-1,9.58.64s5.19,4.62,7.52,12.51c1.81,6.13,5.93,22.63,5.22,27.94s-19.75,8.71-19.75,8.71Z" style="fill:#673AB7"></path><path d="M400.53,268.78c-1.21-6.4-3.08-13.62-4.15-17.24-2.33-7.89-4.9-10.89-7.52-12.51s-7.44-1.29-9.58-.64l1.57,30.39Z" style="opacity:0.30000000000000004"></path><path d="M399.15,287a54.39,54.39,0,0,1-5.76-13.5c-1.76-11.36,2.22-16.48-2.1-27.46-2-5-7.12-8.91-12.37-7.63a34.84,34.84,0,0,0-3.78,1.17c-1.08,3.58-11.53,6.16-16.16,4.2-3.93,1.4-8.45,3.12-8.45,3.12-1.91,3.81-3,8.16-3.95,16.38-.37,3.32,1,7,2.84,10.17a44.46,44.46,0,0,1,5.6,27.9l-.12.84s8.19,9.15,28.28,5.5c17.88-3.25,18.42-15.22,18.42-15.22A54.12,54.12,0,0,0,399.15,287Z" style="fill:#673AB7"></path><path d="M302.67,274.15a16.73,16.73,0,0,0,4.17,4.5c2.67,1.84,5.69,3.06,8.47,4.73,3.51,2.1,8.92,5.16,13.48,7.78a66.7,66.7,0,0,0,14.59,6.13c4.19,1.07,5.88,1.18,8.09-5.54,1.09-3.3,1.44-4.89,2.36-8.23,1.37-5,2.24-8.42,3.55-13.42,0,0,5.54-19.32-6.68-22.88-5.25,3.26-6.31,6.21-7.76,12.7-1.74,7.76-4.68,20.65-4.68,20.65-4.51-1.49-10.65-3.68-13.09-4.71s-3.38-1.46-4.55-2.81a21.13,21.13,0,0,1-2.07-3,47.5,47.5,0,0,0-3.27-4.35l-1.51-2c-.3-.39-.74-1.31-1.25-1.44a.87.87,0,0,0-.86.35,1.63,1.63,0,0,0-.27.92c-.05,1.51,1.05,2.88,1.07,4.39,0,.15,0,.34-.18.37a.42.42,0,0,1-.19,0,9.88,9.88,0,0,1-3.44-2.86,17.58,17.58,0,0,1-2.43-3.67,6.49,6.49,0,0,0-1.18-1.92,1.78,1.78,0,0,0-2.07-.39.52.52,0,0,1-.2.09.41.41,0,0,1-.29-.16,3.37,3.37,0,0,0-1-.75,1.14,1.14,0,0,0-1.17.09,1.44,1.44,0,0,0-.37,1.17,3.74,3.74,0,0,1,0,1.25,6.56,6.56,0,0,1-.35.76c-.53,1.21.07,2.61,0,3.92,0,.41-.13.8-.16,1.21-.18,2.06,1.06,3.69,2.11,5.32C301.88,273,302.27,273.56,302.67,274.15Z" style="fill:#ffbda7"></path><path d="M350.53,246.92c-5.41,2.15-7,7.83-8.81,16.08s-2.84,13.56-2.84,13.56a26.08,26.08,0,0,0,7.64,4.13,23,23,0,0,0,8.64.68s2-7.33,3.06-12.33,1.22-12.39-.7-16.27A10.73,10.73,0,0,0,350.53,246.92Z" style="fill:#673AB7"></path><path d="M350.53,246.92c-5.41,2.15-7,7.83-8.81,16.08s-2.84,13.56-2.84,13.56a26.08,26.08,0,0,0,7.64,4.13,23,23,0,0,0,8.64.68s2-7.33,3.06-12.33,1.22-12.39-.7-16.27A10.73,10.73,0,0,0,350.53,246.92Z" style="opacity:0.30000000000000004"></path><polygon points="338.26 280.57 337.58 283.77 337.18 280.21 338.26 280.57" style="fill:#f0997a"></polygon><path d="M400.42,331.72a4.36,4.36,0,0,0,2.12-3.5l.91-14.45c.07-1.06-.59-1.52-1.48-1l-6.66,3.71a3.83,3.83,0,0,0-1.73,2.8l-.93,14.68a3.13,3.13,0,0,1-1.25,2.75V338a8.74,8.74,0,0,0,3.08-2.8Z" style="fill:#263238"></path><path d="M401.32,332.21a4.36,4.36,0,0,0,2.12-3.5l.91-14.45c.07-1.06-.6-1.51-1.49-1L396.21,317a3.8,3.8,0,0,0-1.73,2.81l-.93,14.67A4.31,4.31,0,0,1,391.4,338l4-2.31Z" style="fill:#37474f"></path><path d="M414.41,248.22c-.37-.25-1.89-1.29-2.29-1.55-1.33-.89-3.25-.8-5.45.46L387,258.46c-4.41,2.54-8.25,8.89-8.59,14.17l-3.34,52.82,2.3,1.55L413,306.43l3.34-52.78C416.52,251,415.76,249.11,414.41,248.22Z" style="fill:#673AB7"></path><path d="M414.41,248.22c-.37-.25-1.89-1.29-2.29-1.55-1.33-.89-3.25-.8-5.45.46L387,258.46c-4.41,2.54-8.25,8.89-8.59,14.17l-3.34,52.82,2.3,1.55L413,306.43l3.34-52.78C416.52,251,415.76,249.11,414.41,248.22Z" style="opacity:0.2"></path><path d="M414.24,287l2.11-33.3c.17-2.66-.59-4.54-1.94-5.43-.37-.25-1.89-1.29-2.29-1.55-1.33-.89-3.25-.8-5.45.46L387,258.46a17.56,17.56,0,0,0-5.91,6.22Z" style="fill:#673AB7"></path><path d="M414.24,287l2.11-33.3c.17-2.66-.59-4.54-1.94-5.43-.37-.25-1.89-1.29-2.29-1.55-1.33-.89-3.25-.8-5.45.46L387,258.46a17.56,17.56,0,0,0-5.91,6.22Z" style="fill:#fff;opacity:0.2"></path><path d="M414.41,248.22c-1.33-.88-3.25-.8-5.44.46L389.31,260c-4.41,2.54-8.26,8.88-8.59,14.16L377.38,327l3.14,2.1,35.64-20.56,3.33-52.79c.17-2.6-.55-4.46-1.85-5.37C417.09,250,415,248.58,414.41,248.22Z" style="fill:#455a64"></path><path d="M383.4,266.22a18.33,18.33,0,0,0-2.68,8L377.38,327l3.14,2.1,35.64-20.56,1.23-19.48Z" style="fill:#37474f;opacity:0.30000000000000004"></path><path d="M380.52,329.1l3.34-52.82c.34-5.28,4.18-11.62,8.59-14.16l19.66-11.33c4.41-2.54,7.72-.32,7.38,5l-3.33,52.79Z" style="fill:#263238"></path></g></g></g><g id="freepik--Files--inject-10"><g id="freepik--files--inject-10"><path d="M195.71,377.09a.76.76,0,0,0,.36.55l37.19,21.46a.72.72,0,0,0,.67,0l29-16.58,0-.7L225.05,360l-29,16.58A.72.72,0,0,0,195.71,377.09Z" style="fill:#673AB7"></path><path d="M233.56,398.47l0,.7a.63.63,0,0,1-.34-.07l-37.19-21.46a.76.76,0,0,1-.36-.55.7.7,0,0,1,.31-.56c-.18.11-.17.29,0,.4l37.18,21.47A.57.57,0,0,0,233.56,398.47Z" style="opacity:0.1"></path><path d="M262.91,381.81l-29,16.58a.6.6,0,0,1-.33.08.57.57,0,0,1-.34-.07L196,376.93c-.19-.11-.2-.29,0-.4l29-16.58Z" style="opacity:0.5"></path><path d="M262.91,381.81l0,.7-29,16.58a.62.62,0,0,1-.33.08l0-.7a.6.6,0,0,0,.33-.08Z" style="opacity:0.2"></path><polygon points="262.47 382.1 224.6 360.25 224.12 350.98 262 372.94 262.47 382.1" style="fill:#673AB7"></polygon><polygon points="262.47 382.1 224.6 360.25 224.12 350.98 262 372.94 262.47 382.1" style="opacity:0.7000000000000001"></polygon><path d="M195.87,372.1a1,1,0,0,0-.38.77l.1,1.87a1,1,0,0,0,.45.76l37,21.36a.87.87,0,0,0,.83,0l24.55-15L258.3,379,220.43,357.1Z" style="fill:#ebebeb"></path><path d="M220.43,357.1l-24.56,15a.28.28,0,0,0,0,.51l37,21.36a.88.88,0,0,0,.82,0l24.56-15Z" style="fill:#fafafa"></path><path d="M255.09,379.25a.94.94,0,0,0,.28.1.85.85,0,0,0,.45,0,.35.35,0,0,0,.14-.06c.22-.13.18-.37-.09-.53a.92.92,0,0,0-.4-.11.72.72,0,0,0-.47.09s0,0,0,0C254.79,378.9,254.83,379.11,255.09,379.25Z" style="fill:#263238"></path><path d="M233.34,394.06l.14,2.89a.74.74,0,0,1-.42-.09L196,375.5a1,1,0,0,1-.45-.75l-.1-1.88a1,1,0,0,1,.28-.69c-.11.13-.08.31.12.42l37,21.36A.76.76,0,0,0,233.34,394.06Z" style="fill:#e6e6e6"></path><path d="M259.31,375.16a1.57,1.57,0,0,0-1.71.14,6,6,0,0,0-2.15,3.72l.57.08a5.46,5.46,0,0,1,1.89-3.29,1.47,1.47,0,0,1,.7-.25.81.81,0,0,1,.44.12,2.41,2.41,0,0,1,.78,2c.05,1.92-.88,4.11-2.06,4.88a1.21,1.21,0,0,1-.84.24l-.6.39,0,0a1.27,1.27,0,0,0,.73.19,1.77,1.77,0,0,0,1-.33c1.35-.88,2.36-3.24,2.31-5.38A2.94,2.94,0,0,0,259.31,375.16Z" style="fill:#263238"></path><path d="M195.41,371.2a.78.78,0,0,0,.36.56L233,393.21a.69.69,0,0,0,.67,0l28.85-19.91,0-.7-37.86-21.86-28.87,19.91A.74.74,0,0,0,195.41,371.2Z" style="fill:#673AB7"></path><path d="M233.26,392.59l0,.7a.74.74,0,0,1-.34-.08l-37.19-21.45a.78.78,0,0,1-.36-.55.72.72,0,0,1,.31-.57.22.22,0,0,0,0,.41l37.18,21.46A.66.66,0,0,0,233.26,392.59Z" style="opacity:0.1"></path><path d="M262.44,372.59,233.59,392.5a.6.6,0,0,1-.33.09.66.66,0,0,1-.34-.08l-37.18-21.46a.22.22,0,0,1,0-.41l28.86-19.91Z" style="fill:#673AB7"></path><path d="M262.44,372.59l0,.7L233.63,393.2a.63.63,0,0,1-.33.09l0-.7a.6.6,0,0,0,.33-.09Z" style="opacity:0.2"></path><polygon points="262.91 381.81 262.44 372.6 262 372.94 262.47 382.1 262.91 381.81" style="fill:#673AB7"></polygon><polygon points="262.91 381.81 262.44 372.6 262 372.94 262.47 382.1 262.91 381.81" style="opacity:0.2"></polygon><path d="M261.36,372.47a.57.57,0,0,0,.29-.48l0-.72L225,350.58a1.6,1.6,0,0,0-1.53,0L195,369.18,232.87,391Z" style="fill:#673AB7"></path><path d="M261.36,372.47a.57.57,0,0,0,.29-.48l0-.72L225,350.58a1.6,1.6,0,0,0-1.53,0L195,369.18,232.87,391Z" style="opacity:0.2"></path><path d="M261.32,371.76c.41-.26.39-.68-.05-.93L225,349.88a1.61,1.61,0,0,0-1.52,0L195,368.48l37.87,21.86Z" style="fill:#673AB7"></path><path d="M261.32,371.76c.41-.26.39-.68-.05-.93L225,349.88a1.61,1.61,0,0,0-1.52,0L195,368.48l37.87,21.86Z" style="opacity:0.5"></path><path d="M201.49,363.64l21.1-13.74a1.58,1.58,0,0,1,1.52,0l33.7,19.45,2.74-1.8.19,3.56-.06,0a.47.47,0,0,1-.23.64L236.29,387.5l-37.88-21.85-.2-3.9Z" style="fill:#ebebeb"></path><path d="M260.26,367.86a.5.5,0,0,0-.05-.93L223.92,346a1.6,1.6,0,0,0-1.53,0l-24.18,15.75,37.88,21.86Z" style="fill:#fafafa"></path><polygon points="236.09 383.61 236.29 387.5 198.41 365.65 198.21 361.75 236.09 383.61" style="fill:#e6e6e6"></polygon><path d="M235.61,382.09a.91.91,0,0,0,.29.1.73.73,0,0,0,.44,0,.46.46,0,0,0,.14-.05c.22-.14.18-.38-.09-.54a1.08,1.08,0,0,0-.4-.11.72.72,0,0,0-.47.09.08.08,0,0,0,0,0C235.31,381.74,235.35,382,235.61,382.09Z" style="fill:#263238"></path><path d="M231.92,385.21a2.28,2.28,0,0,0,.45,1.34,1.39,1.39,0,0,0,1.12.53h0a1.92,1.92,0,0,0,1-.36,1,1,0,0,0,.19-.12l-.45-.25c-1,.63-1.86.12-1.92-1.15a4.32,4.32,0,0,1,1.7-3.5,1.2,1.2,0,0,1,1.42-.1,1.17,1.17,0,0,1,.42.59.73.73,0,0,0,.44,0,1.65,1.65,0,0,0-.35-.7,1.38,1.38,0,0,0-1.12-.52,2,2,0,0,0-1.05.35A4.76,4.76,0,0,0,231.92,385.21Z" style="fill:#263238"></path><path d="M232.82,381.51l28.51-15.73,0,.51a.86.86,0,0,1-.35.7l-28.15,15.23Z" style="fill:#673AB7"></path><path d="M232.82,381.51l28.51-15.73,0,.51a.86.86,0,0,1-.35.7l-28.15,15.23Z" style="opacity:0.2"></path><path d="M261,366.25a.51.51,0,0,0-.05-.94L224.7,344.36a1.58,1.58,0,0,0-1.52,0l-28.66,15.54,37.88,21.85Z" style="fill:#673AB7"></path><polygon points="232.87 391.04 194.99 369.18 194.52 359.91 232.4 381.78 232.87 391.04" style="fill:#673AB7"></polygon><polygon points="232.87 391.04 194.99 369.18 194.52 359.91 232.4 381.78 232.87 391.04" style="opacity:0.1"></polygon><path d="M225.87,385.21a1.27,1.27,0,0,0,1.06-.57,2.13,2.13,0,0,0,.32-1.35,5.12,5.12,0,0,0-2.3-3.84,2.15,2.15,0,0,0-1.08-.32c-.89,0-1.45.79-1.39,1.93a5.15,5.15,0,0,0,2.31,3.83,2,2,0,0,0,1.08.32Z" style="fill:#455a64"></path><path d="M226.81,383.29c.07,1.28-.75,1.82-1.82,1.2a4.68,4.68,0,0,1-2.07-3.44c-.06-1.28.75-1.81,1.83-1.19A4.67,4.67,0,0,1,226.81,383.29Z" style="fill:#f5f5f5"></path><path d="M219.73,378.77l0,.7c.07,1.4-.83,2-2,1.3l-18-10.41a5.13,5.13,0,0,1-2.27-3.77l0-.7c-.08-1.41.82-2,2-1.31l18,10.41A5.12,5.12,0,0,1,219.73,378.77Z" style="fill:#f5f5f5"></path><polygon points="233.31 390.75 232.84 381.54 232.4 381.78 232.87 391.04 233.31 390.75" style="fill:#673AB7"></polygon><polygon points="233.31 390.75 232.84 381.54 232.4 381.78 232.87 391.04 233.31 390.75" style="opacity:0.2"></polygon></g></g></svg>
